<?xml version="1.0" encoding="UTF-8" standalone="no"?>
<!DOCTYPE svg PUBLIC "-//W3C//DTD SVG 1.1//EN"
 "http://www.w3.org/Graphics/SVG/1.1/DTD/svg11.dtd">
<!-- Generated by graphviz version 2.38.0 (20140413.2041)
 -->
<!-- Title: strToUpper Pages: 1 -->
<svg width="446pt" height="88pt"
 viewBox="0.00 0.00 446.00 88.00" xmlns="http://www.w3.org/2000/svg" xmlns:xlink="http://www.w3.org/1999/xlink">
<g id="graph0" class="graph" transform="scale(1 1) rotate(0) translate(4 84)">
<title>strToUpper</title>
<!-- Node1 -->
<g id="node1" class="node"><title>Node1</title>
<polygon fill="#bfbfbf" stroke="black" points="0,-30 0,-49 65,-49 65,-30 0,-30"/>
<text text-anchor="middle" x="32.5" y="-37" font-family="Helvetica,sans-Serif" font-size="10.00">strToUpper</text>
</g>
<!-- Node2 -->
<g id="node2" class="node"><title>Node2</title>
<g id="a_node2"><a xlink:href="classNiceHashApi.html#abaa8b2852ddaf91503949b3bf7b1c94e" target="_top" xlink:title="Convert an algorithm name to its id. ">
<polygon fill="none" stroke="black" points="101,-30 101,-49 267,-49 267,-30 101,-30"/>
<text text-anchor="middle" x="184" y="-37" font-family="Helvetica,sans-Serif" font-size="10.00">NiceHashApi::algorithmNameToId</text>
</a>
</g>
</g>
<!-- Node1&#45;&gt;Node2 -->
<g id="edge1" class="edge"><title>Node1&#45;&gt;Node2</title>
<path fill="none" stroke="midnightblue" d="M75.3687,-39.5C83.4096,-39.5 92.0844,-39.5 100.897,-39.5"/>
<polygon fill="midnightblue" stroke="midnightblue" points="75.2051,-36.0001 65.2051,-39.5 75.2051,-43.0001 75.2051,-36.0001"/>
</g>
<!-- Node3 -->
<g id="node3" class="node"><title>Node3</title>
<g id="a_node3"><a xlink:href="classNiceHashApi.html#aceafda7f234d706183d2f8aced09642d" target="_top" xlink:title="Get all orders for a given algorithm by name. ">
<polygon fill="none" stroke="black" points="303,-49.5 303,-79.5 438,-79.5 438,-49.5 303,-49.5"/>
<text text-anchor="start" x="311" y="-67.5" font-family="Helvetica,sans-Serif" font-size="10.00">NiceHashApi::getOrdersBy</text>
<text text-anchor="middle" x="370.5" y="-56.5" font-family="Helvetica,sans-Serif" font-size="10.00">Algorithm</text>
</a>
</g>
</g>
<!-- Node2&#45;&gt;Node3 -->
<g id="edge2" class="edge"><title>Node2&#45;&gt;Node3</title>
<path fill="none" stroke="midnightblue" d="M265.238,-50.3724C277.76,-52.0692 290.583,-53.8066 302.762,-55.4569"/>
<polygon fill="midnightblue" stroke="midnightblue" points="265.657,-46.8973 255.278,-49.0227 264.717,-53.8339 265.657,-46.8973"/>
</g>
<!-- Node4 -->
<g id="node4" class="node"><title>Node4</title>
<g id="a_node4"><a xlink:href="classNiceHashApi.html#aa991c34b2d2b66c6d2fbd390e34cf58c" target="_top" xlink:title="Get detailed stats for a provider&#39;s workers by algorithm name. ">
<polygon fill="none" stroke="black" points="305.5,-0.5 305.5,-30.5 435.5,-30.5 435.5,-0.5 305.5,-0.5"/>
<text text-anchor="start" x="313.5" y="-18.5" font-family="Helvetica,sans-Serif" font-size="10.00">NiceHashApi::getProvider</text>
<text text-anchor="middle" x="370.5" y="-7.5" font-family="Helvetica,sans-Serif" font-size="10.00">WorkerStats</text>
</a>
</g>
</g>
<!-- Node2&#45;&gt;Node4 -->
<g id="edge3" class="edge"><title>Node2&#45;&gt;Node4</title>
<path fill="none" stroke="midnightblue" d="M268.136,-28.6855C280.628,-27.0606 293.344,-25.4064 305.358,-23.8437"/>
<polygon fill="midnightblue" stroke="midnightblue" points="267.649,-25.2193 258.184,-29.9801 268.552,-32.1608 267.649,-25.2193"/>
</g>
</g>
</svg>
