<?xml version="1.0" encoding="UTF-8" standalone="no"?>
<!DOCTYPE svg PUBLIC "-//W3C//DTD SVG 1.1//EN"
 "http://www.w3.org/Graphics/SVG/1.1/DTD/svg11.dtd">
<!-- Generated by graphviz version 2.38.0 (20140413.2041)
 -->
<!-- Title: algorithmNameToId.cpp Pages: 1 -->
<svg width="384pt" height="207pt"
 viewBox="0.00 0.00 384.00 207.00" xmlns="http://www.w3.org/2000/svg" xmlns:xlink="http://www.w3.org/1999/xlink">
<g id="graph0" class="graph" transform="scale(1 1) rotate(0) translate(4 203)">
<title>algorithmNameToId.cpp</title>
<!-- Node0 -->
<g id="node1" class="node"><title>Node0</title>
<polygon fill="#bfbfbf" stroke="black" points="90,-179.5 90,-198.5 211,-198.5 211,-179.5 90,-179.5"/>
<text text-anchor="middle" x="150.5" y="-186.5" font-family="Helvetica,sans-Serif" font-size="10.00">algorithmNameToId.cpp</text>
</g>
<!-- Node1 -->
<g id="node2" class="node"><title>Node1</title>
<polygon fill="none" stroke="#bfbfbf" points="0,-118 0,-137 35,-137 35,-118 0,-118"/>
<text text-anchor="middle" x="17.5" y="-125" font-family="Helvetica,sans-Serif" font-size="10.00">map</text>
</g>
<!-- Node0&#45;&gt;Node1 -->
<g id="edge1" class="edge"><title>Node0&#45;&gt;Node1</title>
<path fill="none" stroke="midnightblue" d="M128.723,-179.434C107.111,-170.775 73.1626,-156.745 44.5,-143 43.6604,-142.597 42.8095,-142.182 41.9526,-141.758"/>
<polygon fill="midnightblue" stroke="midnightblue" points="43.2865,-138.507 32.7956,-137.027 40.0737,-144.726 43.2865,-138.507"/>
</g>
<!-- Node2 -->
<g id="node3" class="node"><title>Node2</title>
<polygon fill="none" stroke="#bfbfbf" points="53.5,-118 53.5,-137 109.5,-137 109.5,-118 53.5,-118"/>
<text text-anchor="middle" x="81.5" y="-125" font-family="Helvetica,sans-Serif" font-size="10.00">algorithm</text>
</g>
<!-- Node0&#45;&gt;Node2 -->
<g id="edge2" class="edge"><title>Node0&#45;&gt;Node2</title>
<path fill="none" stroke="midnightblue" d="M140.614,-179.475C129.854,-170.197 112.429,-155.171 99.2788,-143.831"/>
<polygon fill="midnightblue" stroke="midnightblue" points="101.227,-140.889 91.3677,-137.009 96.6552,-146.19 101.227,-140.889"/>
</g>
<!-- Node3 -->
<g id="node4" class="node"><title>Node3</title>
<polygon fill="none" stroke="#bfbfbf" points="127.5,-118 127.5,-137 173.5,-137 173.5,-118 127.5,-118"/>
<text text-anchor="middle" x="150.5" y="-125" font-family="Helvetica,sans-Serif" font-size="10.00">cctype</text>
</g>
<!-- Node0&#45;&gt;Node3 -->
<g id="edge3" class="edge"><title>Node0&#45;&gt;Node3</title>
<path fill="none" stroke="midnightblue" d="M150.5,-179.475C150.5,-171.08 150.5,-157.981 150.5,-147.163"/>
<polygon fill="midnightblue" stroke="midnightblue" points="154,-147.009 150.5,-137.009 147,-147.009 154,-147.009"/>
</g>
<!-- Node4 -->
<g id="node5" class="node"><title>Node4</title>
<polygon fill="none" stroke="#bfbfbf" points="191.5,-118 191.5,-137 245.5,-137 245.5,-118 191.5,-118"/>
<text text-anchor="middle" x="218.5" y="-125" font-family="Helvetica,sans-Serif" font-size="10.00">iostream</text>
</g>
<!-- Node0&#45;&gt;Node4 -->
<g id="edge4" class="edge"><title>Node0&#45;&gt;Node4</title>
<path fill="none" stroke="midnightblue" d="M160.243,-179.475C170.847,-170.197 188.019,-155.171 200.979,-143.831"/>
<polygon fill="midnightblue" stroke="midnightblue" points="203.554,-146.228 208.775,-137.009 198.945,-140.96 203.554,-146.228"/>
</g>
<!-- Node5 -->
<g id="node6" class="node"><title>Node5</title>
<g id="a_node6"><a xlink:href="nicehash-api_8hpp.html" target="_top" xlink:title="../../include/nicehash\l&#45;api.hpp">
<polygon fill="none" stroke="black" points="264,-112.5 264,-142.5 371,-142.5 371,-112.5 264,-112.5"/>
<text text-anchor="start" x="272" y="-130.5" font-family="Helvetica,sans-Serif" font-size="10.00">../../include/nicehash</text>
<text text-anchor="middle" x="317.5" y="-119.5" font-family="Helvetica,sans-Serif" font-size="10.00">&#45;api.hpp</text>
</a>
</g>
</g>
<!-- Node0&#45;&gt;Node5 -->
<g id="edge5" class="edge"><title>Node0&#45;&gt;Node5</title>
<path fill="none" stroke="midnightblue" d="M174.427,-179.475C198.842,-170.776 237.434,-157.026 268.388,-145.998"/>
<polygon fill="midnightblue" stroke="midnightblue" points="269.896,-149.176 278.141,-142.523 267.547,-142.582 269.896,-149.176"/>
</g>
<!-- Node6 -->
<g id="node7" class="node"><title>Node6</title>
<polygon fill="none" stroke="#bfbfbf" points="297,-0.5 297,-19.5 338,-19.5 338,-0.5 297,-0.5"/>
<text text-anchor="middle" x="317.5" y="-7.5" font-family="Helvetica,sans-Serif" font-size="10.00">string</text>
</g>
<!-- Node5&#45;&gt;Node6 -->
<g id="edge6" class="edge"><title>Node5&#45;&gt;Node6</title>
<path fill="none" stroke="midnightblue" d="M313.832,-112.482C310.557,-98.2737 306.555,-75.6462 308.5,-56 309.374,-47.1697 311.191,-37.5054 312.965,-29.4041"/>
<polygon fill="midnightblue" stroke="midnightblue" points="316.401,-30.0846 315.265,-19.5508 309.584,-28.4935 316.401,-30.0846"/>
</g>
<!-- Node7 -->
<g id="node8" class="node"><title>Node7</title>
<g id="a_node8"><a xlink:href="client_8hpp.html" target="_top" xlink:title="client.hpp">
<polygon fill="none" stroke="black" points="317,-56.5 317,-75.5 376,-75.5 376,-56.5 317,-56.5"/>
<text text-anchor="middle" x="346.5" y="-63.5" font-family="Helvetica,sans-Serif" font-size="10.00">client.hpp</text>
</a>
</g>
</g>
<!-- Node5&#45;&gt;Node7 -->
<g id="edge7" class="edge"><title>Node5&#45;&gt;Node7</title>
<path fill="none" stroke="midnightblue" d="M324.373,-112.399C328.413,-104.11 333.558,-93.5542 337.869,-84.7077"/>
<polygon fill="midnightblue" stroke="midnightblue" points="341.045,-86.1804 342.28,-75.6578 334.753,-83.1135 341.045,-86.1804"/>
</g>
<!-- Node7&#45;&gt;Node6 -->
<g id="edge8" class="edge"><title>Node7&#45;&gt;Node6</title>
<path fill="none" stroke="midnightblue" d="M341.711,-56.083C337.742,-48.6913 331.975,-37.9533 327.065,-28.8111"/>
<polygon fill="midnightblue" stroke="midnightblue" points="330.014,-26.9051 322.2,-19.7511 323.847,-30.217 330.014,-26.9051"/>
</g>
</g>
</svg>
