<?xml version="1.0" encoding="UTF-8" standalone="no"?>
<!DOCTYPE svg PUBLIC "-//W3C//DTD SVG 1.1//EN"
 "http://www.w3.org/Graphics/SVG/1.1/DTD/svg11.dtd">
<!-- Generated by graphviz version 2.38.0 (20140413.2041)
 -->
<!-- Title: NiceHashApi::getProviderWorkerStats Pages: 1 -->
<svg width="555pt" height="78pt"
 viewBox="0.00 0.00 555.00 77.50" xmlns="http://www.w3.org/2000/svg" xmlns:xlink="http://www.w3.org/1999/xlink">
<g id="graph0" class="graph" transform="scale(1 1) rotate(0) translate(4 73.5)">
<title>NiceHashApi::getProviderWorkerStats</title>
<!-- Node50 -->
<g id="node1" class="node"><title>Node50</title>
<polygon fill="#bfbfbf" stroke="black" points="0,-22.5 0,-52.5 130,-52.5 130,-22.5 0,-22.5"/>
<text text-anchor="start" x="8" y="-40.5" font-family="Helvetica,sans-Serif" font-size="10.00">NiceHashApi::getProvider</text>
<text text-anchor="middle" x="65" y="-29.5" font-family="Helvetica,sans-Serif" font-size="10.00">WorkerStats</text>
</g>
<!-- Node51 -->
<g id="node2" class="node"><title>Node51</title>
<g id="a_node2"><a xlink:href="classNiceHashApi.html#abaa8b2852ddaf91503949b3bf7b1c94e" target="_top" xlink:title="Convert an algorithm name to its id. ">
<polygon fill="none" stroke="black" points="166,-50 166,-69 332,-69 332,-50 166,-50"/>
<text text-anchor="middle" x="249" y="-57" font-family="Helvetica,sans-Serif" font-size="10.00">NiceHashApi::algorithmNameToId</text>
</a>
</g>
</g>
<!-- Node50&#45;&gt;Node51 -->
<g id="edge1" class="edge"><title>Node50&#45;&gt;Node51</title>
<path fill="none" stroke="midnightblue" d="M130.166,-45.2564C139.509,-46.3857 149.266,-47.5651 158.993,-48.7409"/>
<polygon fill="midnightblue" stroke="midnightblue" points="158.752,-52.2371 169.099,-49.9626 159.592,-45.2877 158.752,-52.2371"/>
</g>
<!-- Node53 -->
<g id="node4" class="node"><title>Node53</title>
<g id="a_node4"><a xlink:href="classNiceHashApi.html#a080715e168207776178ae7d7e1da6893" target="_top" xlink:title="Get detailed stats for a provider&#39;s workers by algorithm id. ">
<polygon fill="none" stroke="black" points="184,-0.5 184,-30.5 314,-30.5 314,-0.5 184,-0.5"/>
<text text-anchor="start" x="192" y="-18.5" font-family="Helvetica,sans-Serif" font-size="10.00">NiceHashApi::getProvider</text>
<text text-anchor="middle" x="249" y="-7.5" font-family="Helvetica,sans-Serif" font-size="10.00">WorkerStats</text>
</a>
</g>
</g>
<!-- Node50&#45;&gt;Node53 -->
<g id="edge3" class="edge"><title>Node50&#45;&gt;Node53</title>
<path fill="none" stroke="midnightblue" d="M130.166,-29.7436C144.166,-28.0513 159.097,-26.2465 173.461,-24.5102"/>
<polygon fill="midnightblue" stroke="midnightblue" points="174.292,-27.9353 183.8,-23.2605 173.452,-20.9859 174.292,-27.9353"/>
</g>
<!-- Node52 -->
<g id="node3" class="node"><title>Node52</title>
<g id="a_node3"><a xlink:href="algorithmNameToId_8cpp.html#a1e1200c519d86807a4ed778251575b04" target="_top" xlink:title="strToUpper">
<polygon fill="none" stroke="black" points="368,-50 368,-69 433,-69 433,-50 368,-50"/>
<text text-anchor="middle" x="400.5" y="-57" font-family="Helvetica,sans-Serif" font-size="10.00">strToUpper</text>
</a>
</g>
</g>
<!-- Node51&#45;&gt;Node52 -->
<g id="edge2" class="edge"><title>Node51&#45;&gt;Node52</title>
<path fill="none" stroke="midnightblue" d="M332.185,-59.5C340.96,-59.5 349.597,-59.5 357.605,-59.5"/>
<polygon fill="midnightblue" stroke="midnightblue" points="357.731,-63.0001 367.731,-59.5 357.731,-56.0001 357.731,-63.0001"/>
</g>
<!-- Node54 -->
<g id="node5" class="node"><title>Node54</title>
<g id="a_node5"><a xlink:href="classClient.html#a3603f0196f11c9a675ed9812487d5a63" target="_top" xlink:title="GET request the provided url and return the response body as a string. ">
<polygon fill="none" stroke="black" points="369.5,-6 369.5,-25 431.5,-25 431.5,-6 369.5,-6"/>
<text text-anchor="middle" x="400.5" y="-13" font-family="Helvetica,sans-Serif" font-size="10.00">Client::get</text>
</a>
</g>
</g>
<!-- Node53&#45;&gt;Node54 -->
<g id="edge4" class="edge"><title>Node53&#45;&gt;Node54</title>
<path fill="none" stroke="midnightblue" d="M314.269,-15.5C329.531,-15.5 345.387,-15.5 359.225,-15.5"/>
<polygon fill="midnightblue" stroke="midnightblue" points="359.37,-19.0001 369.37,-15.5 359.37,-12.0001 359.37,-19.0001"/>
</g>
<!-- Node55 -->
<g id="node6" class="node"><title>Node55</title>
<g id="a_node6"><a xlink:href="get_8cpp.html#ab54064eb3c1650bc846b7731da4b07b1" target="_top" xlink:title="WriteCallback">
<polygon fill="none" stroke="black" points="469,-6 469,-25 547,-25 547,-6 469,-6"/>
<text text-anchor="middle" x="508" y="-13" font-family="Helvetica,sans-Serif" font-size="10.00">WriteCallback</text>
</a>
</g>
</g>
<!-- Node54&#45;&gt;Node55 -->
<g id="edge5" class="edge"><title>Node54&#45;&gt;Node55</title>
<path fill="none" stroke="midnightblue" d="M431.732,-15.5C440.138,-15.5 449.482,-15.5 458.648,-15.5"/>
<polygon fill="midnightblue" stroke="midnightblue" points="458.862,-19.0001 468.862,-15.5 458.862,-12.0001 458.862,-19.0001"/>
</g>
</g>
</svg>
