<?xml version="1.0" encoding="UTF-8" standalone="no"?>
<!DOCTYPE svg PUBLIC "-//W3C//DTD SVG 1.1//EN"
 "http://www.w3.org/Graphics/SVG/1.1/DTD/svg11.dtd">
<!-- Generated by graphviz version 2.38.0 (20140413.2041)
 -->
<!-- Title: NiceHashApi::getAverageGlobalStats Pages: 1 -->
<svg width="378pt" height="39pt"
 viewBox="0.00 0.00 378.00 39.00" xmlns="http://www.w3.org/2000/svg" xmlns:xlink="http://www.w3.org/1999/xlink">
<g id="graph0" class="graph" transform="scale(1 1) rotate(0) translate(4 35)">
<title>NiceHashApi::getAverageGlobalStats</title>
<!-- Node15 -->
<g id="node1" class="node"><title>Node15</title>
<polygon fill="#bfbfbf" stroke="black" points="0,-0.5 0,-30.5 158,-30.5 158,-0.5 0,-0.5"/>
<text text-anchor="start" x="8" y="-18.5" font-family="Helvetica,sans-Serif" font-size="10.00">NiceHashApi::getAverageGlobal</text>
<text text-anchor="middle" x="79" y="-7.5" font-family="Helvetica,sans-Serif" font-size="10.00">Stats</text>
</g>
<!-- Node16 -->
<g id="node2" class="node"><title>Node16</title>
<g id="a_node2"><a xlink:href="classClient.html#a3603f0196f11c9a675ed9812487d5a63" target="_top" xlink:title="GET request the provided url and return the response body as a string. ">
<polygon fill="none" stroke="black" points="194,-6 194,-25 256,-25 256,-6 194,-6"/>
<text text-anchor="middle" x="225" y="-13" font-family="Helvetica,sans-Serif" font-size="10.00">Client::get</text>
</a>
</g>
</g>
<!-- Node15&#45;&gt;Node16 -->
<g id="edge1" class="edge"><title>Node15&#45;&gt;Node16</title>
<path fill="none" stroke="midnightblue" d="M158.321,-15.5C167.127,-15.5 175.807,-15.5 183.826,-15.5"/>
<polygon fill="midnightblue" stroke="midnightblue" points="183.944,-19.0001 193.944,-15.5 183.944,-12.0001 183.944,-19.0001"/>
</g>
<!-- Node17 -->
<g id="node3" class="node"><title>Node17</title>
<g id="a_node3"><a xlink:href="get_8cpp.html#ab54064eb3c1650bc846b7731da4b07b1" target="_top" xlink:title="WriteCallback">
<polygon fill="none" stroke="black" points="292,-6 292,-25 370,-25 370,-6 292,-6"/>
<text text-anchor="middle" x="331" y="-13" font-family="Helvetica,sans-Serif" font-size="10.00">WriteCallback</text>
</a>
</g>
</g>
<!-- Node16&#45;&gt;Node17 -->
<g id="edge2" class="edge"><title>Node16&#45;&gt;Node17</title>
<path fill="none" stroke="midnightblue" d="M256.081,-15.5C264.101,-15.5 272.973,-15.5 281.704,-15.5"/>
<polygon fill="midnightblue" stroke="midnightblue" points="281.83,-19.0001 291.83,-15.5 281.83,-12.0001 281.83,-19.0001"/>
</g>
</g>
</svg>
