<?xml version="1.0" encoding="UTF-8" standalone="no"?>
<!DOCTYPE svg PUBLIC "-//W3C//DTD SVG 1.1//EN"
 "http://www.w3.org/Graphics/SVG/1.1/DTD/svg11.dtd">
<!-- Generated by graphviz version 2.38.0 (20140413.2041)
 -->
<!-- Title: NiceHashApi::getOrdersByAlgorithm Pages: 1 -->
<svg width="560pt" height="78pt"
 viewBox="0.00 0.00 560.00 77.50" xmlns="http://www.w3.org/2000/svg" xmlns:xlink="http://www.w3.org/1999/xlink">
<g id="graph0" class="graph" transform="scale(1 1) rotate(0) translate(4 73.5)">
<title>NiceHashApi::getOrdersByAlgorithm</title>
<!-- Node34 -->
<g id="node1" class="node"><title>Node34</title>
<polygon fill="#bfbfbf" stroke="black" points="0,-22.5 0,-52.5 135,-52.5 135,-22.5 0,-22.5"/>
<text text-anchor="start" x="8" y="-40.5" font-family="Helvetica,sans-Serif" font-size="10.00">NiceHashApi::getOrdersBy</text>
<text text-anchor="middle" x="67.5" y="-29.5" font-family="Helvetica,sans-Serif" font-size="10.00">Algorithm</text>
</g>
<!-- Node35 -->
<g id="node2" class="node"><title>Node35</title>
<g id="a_node2"><a xlink:href="classNiceHashApi.html#abaa8b2852ddaf91503949b3bf7b1c94e" target="_top" xlink:title="Convert an algorithm name to its id. ">
<polygon fill="none" stroke="black" points="171,-50 171,-69 337,-69 337,-50 171,-50"/>
<text text-anchor="middle" x="254" y="-57" font-family="Helvetica,sans-Serif" font-size="10.00">NiceHashApi::algorithmNameToId</text>
</a>
</g>
</g>
<!-- Node34&#45;&gt;Node35 -->
<g id="edge1" class="edge"><title>Node34&#45;&gt;Node35</title>
<path fill="none" stroke="midnightblue" d="M135.109,-45.4425C144.205,-46.5271 153.662,-47.6549 163.087,-48.7787"/>
<polygon fill="midnightblue" stroke="midnightblue" points="162.939,-52.2857 173.283,-49.9944 163.767,-45.3349 162.939,-52.2857"/>
</g>
<!-- Node37 -->
<g id="node4" class="node"><title>Node37</title>
<g id="a_node4"><a xlink:href="classNiceHashApi.html#a351c8c49d65aa3bfec9f791fab61d0dc" target="_top" xlink:title="Get all orders for a given algorithm id. ">
<polygon fill="none" stroke="black" points="186.5,-0.5 186.5,-30.5 321.5,-30.5 321.5,-0.5 186.5,-0.5"/>
<text text-anchor="start" x="194.5" y="-18.5" font-family="Helvetica,sans-Serif" font-size="10.00">NiceHashApi::getOrdersBy</text>
<text text-anchor="middle" x="254" y="-7.5" font-family="Helvetica,sans-Serif" font-size="10.00">Algorithm</text>
</a>
</g>
</g>
<!-- Node34&#45;&gt;Node37 -->
<g id="edge3" class="edge"><title>Node34&#45;&gt;Node37</title>
<path fill="none" stroke="midnightblue" d="M135.109,-29.5575C148.434,-27.9686 162.534,-26.2873 176.171,-24.6612"/>
<polygon fill="midnightblue" stroke="midnightblue" points="176.974,-28.0903 186.489,-23.4308 176.145,-21.1396 176.974,-28.0903"/>
</g>
<!-- Node36 -->
<g id="node3" class="node"><title>Node36</title>
<g id="a_node3"><a xlink:href="algorithmNameToId_8cpp.html#a1e1200c519d86807a4ed778251575b04" target="_top" xlink:title="strToUpper">
<polygon fill="none" stroke="black" points="373,-50 373,-69 438,-69 438,-50 373,-50"/>
<text text-anchor="middle" x="405.5" y="-57" font-family="Helvetica,sans-Serif" font-size="10.00">strToUpper</text>
</a>
</g>
</g>
<!-- Node35&#45;&gt;Node36 -->
<g id="edge2" class="edge"><title>Node35&#45;&gt;Node36</title>
<path fill="none" stroke="midnightblue" d="M337.185,-59.5C345.96,-59.5 354.597,-59.5 362.605,-59.5"/>
<polygon fill="midnightblue" stroke="midnightblue" points="362.731,-63.0001 372.731,-59.5 362.731,-56.0001 362.731,-63.0001"/>
</g>
<!-- Node38 -->
<g id="node5" class="node"><title>Node38</title>
<g id="a_node5"><a xlink:href="classClient.html#a3603f0196f11c9a675ed9812487d5a63" target="_top" xlink:title="GET request the provided url and return the response body as a string. ">
<polygon fill="none" stroke="black" points="374.5,-6 374.5,-25 436.5,-25 436.5,-6 374.5,-6"/>
<text text-anchor="middle" x="405.5" y="-13" font-family="Helvetica,sans-Serif" font-size="10.00">Client::get</text>
</a>
</g>
</g>
<!-- Node37&#45;&gt;Node38 -->
<g id="edge4" class="edge"><title>Node37&#45;&gt;Node38</title>
<path fill="none" stroke="midnightblue" d="M321.879,-15.5C336.357,-15.5 351.232,-15.5 364.302,-15.5"/>
<polygon fill="midnightblue" stroke="midnightblue" points="364.353,-19.0001 374.353,-15.5 364.353,-12.0001 364.353,-19.0001"/>
</g>
<!-- Node39 -->
<g id="node6" class="node"><title>Node39</title>
<g id="a_node6"><a xlink:href="get_8cpp.html#ab54064eb3c1650bc846b7731da4b07b1" target="_top" xlink:title="WriteCallback">
<polygon fill="none" stroke="black" points="474,-6 474,-25 552,-25 552,-6 474,-6"/>
<text text-anchor="middle" x="513" y="-13" font-family="Helvetica,sans-Serif" font-size="10.00">WriteCallback</text>
</a>
</g>
</g>
<!-- Node38&#45;&gt;Node39 -->
<g id="edge5" class="edge"><title>Node38&#45;&gt;Node39</title>
<path fill="none" stroke="midnightblue" d="M436.732,-15.5C445.138,-15.5 454.482,-15.5 463.648,-15.5"/>
<polygon fill="midnightblue" stroke="midnightblue" points="463.862,-19.0001 473.862,-15.5 463.862,-12.0001 463.862,-19.0001"/>
</g>
</g>
</svg>
