<?xml version="1.0" encoding="UTF-8" standalone="no"?>
<!DOCTYPE svg PUBLIC "-//W3C//DTD SVG 1.1//EN"
 "http://www.w3.org/Graphics/SVG/1.1/DTD/svg11.dtd">
<!-- Generated by graphviz version 2.38.0 (20140413.2041)
 -->
<!-- Title: Client::get Pages: 1 -->
<svg width="435pt" height="323pt"
 viewBox="0.00 0.00 435.00 322.50" xmlns="http://www.w3.org/2000/svg" xmlns:xlink="http://www.w3.org/1999/xlink">
<g id="graph0" class="graph" transform="scale(1 1) rotate(0) translate(4 318.5)">
<title>Client::get</title>
<!-- Node4 -->
<g id="node1" class="node"><title>Node4</title>
<polygon fill="#bfbfbf" stroke="black" points="0,-153 0,-172 62,-172 62,-153 0,-153"/>
<text text-anchor="middle" x="31" y="-160" font-family="Helvetica,sans-Serif" font-size="10.00">Client::get</text>
</g>
<!-- Node5 -->
<g id="node2" class="node"><title>Node5</title>
<g id="a_node2"><a xlink:href="classNiceHashApi.html#a484c9564d7e6bfbdb11660d14d52a2c0" target="_top" xlink:title="Get API version. ">
<polygon fill="none" stroke="black" points="106.5,-295 106.5,-314 247.5,-314 247.5,-295 106.5,-295"/>
<text text-anchor="middle" x="177" y="-302" font-family="Helvetica,sans-Serif" font-size="10.00">NiceHashApi::getApiVersion</text>
</a>
</g>
</g>
<!-- Node4&#45;&gt;Node5 -->
<g id="edge1" class="edge"><title>Node4&#45;&gt;Node5</title>
<path fill="none" stroke="midnightblue" d="M37.0894,-182.252C45.2162,-209.715 63.8058,-259.037 98,-285.5 102.96,-289.339 108.586,-292.415 114.492,-294.878"/>
<polygon fill="midnightblue" stroke="midnightblue" points="40.3628,-180.959 34.3126,-172.262 33.6185,-182.834 40.3628,-180.959"/>
</g>
<!-- Node6 -->
<g id="node3" class="node"><title>Node6</title>
<g id="a_node3"><a xlink:href="classNiceHashApi.html#aad59dbb0ee392bb6e3ebe9faac5c5585" target="_top" xlink:title="Get average (24h) global stats. ">
<polygon fill="none" stroke="black" points="98,-245.5 98,-275.5 256,-275.5 256,-245.5 98,-245.5"/>
<text text-anchor="start" x="106" y="-263.5" font-family="Helvetica,sans-Serif" font-size="10.00">NiceHashApi::getAverageGlobal</text>
<text text-anchor="middle" x="177" y="-252.5" font-family="Helvetica,sans-Serif" font-size="10.00">Stats</text>
</a>
</g>
</g>
<!-- Node4&#45;&gt;Node6 -->
<g id="edge2" class="edge"><title>Node4&#45;&gt;Node6</title>
<path fill="none" stroke="midnightblue" d="M43.7856,-180.613C55.5988,-197.398 75.2621,-221.91 98,-236.5 103.366,-239.943 109.256,-242.917 115.319,-245.481"/>
<polygon fill="midnightblue" stroke="midnightblue" points="46.5783,-178.495 38.0607,-172.194 40.79,-182.431 46.5783,-178.495"/>
</g>
<!-- Node7 -->
<g id="node4" class="node"><title>Node7</title>
<g id="a_node4"><a xlink:href="classNiceHashApi.html#af3658d1d968e014d8db56f980b26e322" target="_top" xlink:title="Get current global stats. ">
<polygon fill="none" stroke="black" points="100,-196.5 100,-226.5 254,-226.5 254,-196.5 100,-196.5"/>
<text text-anchor="start" x="108" y="-214.5" font-family="Helvetica,sans-Serif" font-size="10.00">NiceHashApi::getCurrentGlobal</text>
<text text-anchor="middle" x="177" y="-203.5" font-family="Helvetica,sans-Serif" font-size="10.00">Stats</text>
</a>
</g>
</g>
<!-- Node4&#45;&gt;Node7 -->
<g id="edge3" class="edge"><title>Node4&#45;&gt;Node7</title>
<path fill="none" stroke="midnightblue" d="M65.5294,-175.673C75.8901,-179.615 87.372,-183.856 98,-187.5 106.846,-190.533 116.315,-193.597 125.498,-196.475"/>
<polygon fill="midnightblue" stroke="midnightblue" points="66.5941,-172.332 56.004,-172.013 64.0836,-178.867 66.5941,-172.332"/>
</g>
<!-- Node8 -->
<g id="node5" class="node"><title>Node8</title>
<g id="a_node5"><a xlink:href="classNiceHashApi.html#a9e62eb21a0ee5927760b4b69c600b0af" target="_top" xlink:title="Get detailed current stats for provider for all algorithms. ">
<polygon fill="none" stroke="black" points="112,-147.5 112,-177.5 242,-177.5 242,-147.5 112,-147.5"/>
<text text-anchor="start" x="120" y="-165.5" font-family="Helvetica,sans-Serif" font-size="10.00">NiceHashApi::getDetailed</text>
<text text-anchor="middle" x="177" y="-154.5" font-family="Helvetica,sans-Serif" font-size="10.00">ProviderStats</text>
</a>
</g>
</g>
<!-- Node4&#45;&gt;Node8 -->
<g id="edge4" class="edge"><title>Node4&#45;&gt;Node8</title>
<path fill="none" stroke="midnightblue" d="M72.4781,-162.5C84.6829,-162.5 98.3933,-162.5 111.744,-162.5"/>
<polygon fill="midnightblue" stroke="midnightblue" points="72.1872,-159 62.1871,-162.5 72.1871,-166 72.1872,-159"/>
</g>
<!-- Node9 -->
<g id="node6" class="node"><title>Node9</title>
<g id="a_node6"><a xlink:href="classNiceHashApi.html#a351c8c49d65aa3bfec9f791fab61d0dc" target="_top" xlink:title="Get all orders for a given algorithm id. ">
<polygon fill="none" stroke="black" points="109.5,-98.5 109.5,-128.5 244.5,-128.5 244.5,-98.5 109.5,-98.5"/>
<text text-anchor="start" x="117.5" y="-116.5" font-family="Helvetica,sans-Serif" font-size="10.00">NiceHashApi::getOrdersBy</text>
<text text-anchor="middle" x="177" y="-105.5" font-family="Helvetica,sans-Serif" font-size="10.00">Algorithm</text>
</a>
</g>
</g>
<!-- Node4&#45;&gt;Node9 -->
<g id="edge5" class="edge"><title>Node4&#45;&gt;Node9</title>
<path fill="none" stroke="midnightblue" d="M67.1908,-149.419C77.1256,-145.803 87.9631,-141.932 98,-138.5 107.688,-135.187 118.096,-131.761 128.053,-128.546"/>
<polygon fill="midnightblue" stroke="midnightblue" points="65.8069,-146.198 57.62,-152.923 68.2138,-152.771 65.8069,-146.198"/>
</g>
<!-- Node11 -->
<g id="node8" class="node"><title>Node11</title>
<g id="a_node8"><a xlink:href="classNiceHashApi.html#a230aa00b8f54f908765665ba3d42dedc" target="_top" xlink:title="Get current stats for provider for all algorithms. ">
<polygon fill="none" stroke="black" points="112,-49.5 112,-79.5 242,-79.5 242,-49.5 112,-49.5"/>
<text text-anchor="start" x="120" y="-67.5" font-family="Helvetica,sans-Serif" font-size="10.00">NiceHashApi::getProvider</text>
<text text-anchor="middle" x="177" y="-56.5" font-family="Helvetica,sans-Serif" font-size="10.00">Stats</text>
</a>
</g>
</g>
<!-- Node4&#45;&gt;Node11 -->
<g id="edge7" class="edge"><title>Node4&#45;&gt;Node11</title>
<path fill="none" stroke="midnightblue" d="M43.8783,-144.696C55.7584,-128.184 75.4683,-104.036 98,-89.5 103.975,-85.6456 110.591,-82.3431 117.37,-79.524"/>
<polygon fill="midnightblue" stroke="midnightblue" points="40.9562,-142.768 38.1156,-152.975 46.7013,-146.767 40.9562,-142.768"/>
</g>
<!-- Node12 -->
<g id="node9" class="node"><title>Node12</title>
<g id="a_node9"><a xlink:href="classNiceHashApi.html#a080715e168207776178ae7d7e1da6893" target="_top" xlink:title="Get detailed stats for a provider&#39;s workers by algorithm id. ">
<polygon fill="none" stroke="black" points="112,-0.5 112,-30.5 242,-30.5 242,-0.5 112,-0.5"/>
<text text-anchor="start" x="120" y="-18.5" font-family="Helvetica,sans-Serif" font-size="10.00">NiceHashApi::getProvider</text>
<text text-anchor="middle" x="177" y="-7.5" font-family="Helvetica,sans-Serif" font-size="10.00">WorkerStats</text>
</a>
</g>
</g>
<!-- Node4&#45;&gt;Node12 -->
<g id="edge8" class="edge"><title>Node4&#45;&gt;Node12</title>
<path fill="none" stroke="midnightblue" d="M37.3106,-143.026C45.703,-115.895 64.6089,-66.9694 98,-39.5 102.158,-36.0796 106.8,-33.1458 111.691,-30.6295"/>
<polygon fill="midnightblue" stroke="midnightblue" points="33.8748,-142.305 34.4301,-152.886 40.594,-144.268 33.8748,-142.305"/>
</g>
<!-- Node10 -->
<g id="node7" class="node"><title>Node10</title>
<g id="a_node7"><a xlink:href="classNiceHashApi.html#aceafda7f234d706183d2f8aced09642d" target="_top" xlink:title="Get all orders for a given algorithm by name. ">
<polygon fill="none" stroke="black" points="292,-98.5 292,-128.5 427,-128.5 427,-98.5 292,-98.5"/>
<text text-anchor="start" x="300" y="-116.5" font-family="Helvetica,sans-Serif" font-size="10.00">NiceHashApi::getOrdersBy</text>
<text text-anchor="middle" x="359.5" y="-105.5" font-family="Helvetica,sans-Serif" font-size="10.00">Algorithm</text>
</a>
</g>
</g>
<!-- Node9&#45;&gt;Node10 -->
<g id="edge6" class="edge"><title>Node9&#45;&gt;Node10</title>
<path fill="none" stroke="midnightblue" d="M254.902,-113.5C267.168,-113.5 279.769,-113.5 291.774,-113.5"/>
<polygon fill="midnightblue" stroke="midnightblue" points="254.699,-110 244.699,-113.5 254.699,-117 254.699,-110"/>
</g>
<!-- Node13 -->
<g id="node10" class="node"><title>Node13</title>
<g id="a_node10"><a xlink:href="classNiceHashApi.html#aa991c34b2d2b66c6d2fbd390e34cf58c" target="_top" xlink:title="Get detailed stats for a provider&#39;s workers by algorithm name. ">
<polygon fill="none" stroke="black" points="294.5,-0.5 294.5,-30.5 424.5,-30.5 424.5,-0.5 294.5,-0.5"/>
<text text-anchor="start" x="302.5" y="-18.5" font-family="Helvetica,sans-Serif" font-size="10.00">NiceHashApi::getProvider</text>
<text text-anchor="middle" x="359.5" y="-7.5" font-family="Helvetica,sans-Serif" font-size="10.00">WorkerStats</text>
</a>
</g>
</g>
<!-- Node12&#45;&gt;Node13 -->
<g id="edge9" class="edge"><title>Node12&#45;&gt;Node13</title>
<path fill="none" stroke="midnightblue" d="M252.194,-15.5C266.15,-15.5 280.636,-15.5 294.257,-15.5"/>
<polygon fill="midnightblue" stroke="midnightblue" points="252.146,-12.0001 242.146,-15.5 252.146,-19.0001 252.146,-12.0001"/>
</g>
</g>
</svg>
