<?xml version="1.0" encoding="UTF-8" standalone="no"?>
<!DOCTYPE svg PUBLIC "-//W3C//DTD SVG 1.1//EN"
 "http://www.w3.org/Graphics/SVG/1.1/DTD/svg11.dtd">
<!-- Generated by graphviz version 2.38.0 (20140413.2041)
 -->
<!-- Title: NiceHashApi::getApiVersion Pages: 1 -->
<svg width="361pt" height="28pt"
 viewBox="0.00 0.00 361.00 28.00" xmlns="http://www.w3.org/2000/svg" xmlns:xlink="http://www.w3.org/1999/xlink">
<g id="graph0" class="graph" transform="scale(1 1) rotate(0) translate(4 24)">
<title>NiceHashApi::getApiVersion</title>
<!-- Node11 -->
<g id="node1" class="node"><title>Node11</title>
<polygon fill="#bfbfbf" stroke="black" points="0,-0.5 0,-19.5 141,-19.5 141,-0.5 0,-0.5"/>
<text text-anchor="middle" x="70.5" y="-7.5" font-family="Helvetica,sans-Serif" font-size="10.00">NiceHashApi::getApiVersion</text>
</g>
<!-- Node12 -->
<g id="node2" class="node"><title>Node12</title>
<g id="a_node2"><a xlink:href="classClient.html#a3603f0196f11c9a675ed9812487d5a63" target="_top" xlink:title="GET request the provided url and return the response body as a string. ">
<polygon fill="none" stroke="black" points="177,-0.5 177,-19.5 239,-19.5 239,-0.5 177,-0.5"/>
<text text-anchor="middle" x="208" y="-7.5" font-family="Helvetica,sans-Serif" font-size="10.00">Client::get</text>
</a>
</g>
</g>
<!-- Node11&#45;&gt;Node12 -->
<g id="edge1" class="edge"><title>Node11&#45;&gt;Node12</title>
<path fill="none" stroke="midnightblue" d="M141.235,-10C149.982,-10 158.684,-10 166.759,-10"/>
<polygon fill="midnightblue" stroke="midnightblue" points="166.964,-13.5001 176.964,-10 166.964,-6.5001 166.964,-13.5001"/>
</g>
<!-- Node13 -->
<g id="node3" class="node"><title>Node13</title>
<g id="a_node3"><a xlink:href="get_8cpp.html#ab54064eb3c1650bc846b7731da4b07b1" target="_top" xlink:title="WriteCallback">
<polygon fill="none" stroke="black" points="275,-0.5 275,-19.5 353,-19.5 353,-0.5 275,-0.5"/>
<text text-anchor="middle" x="314" y="-7.5" font-family="Helvetica,sans-Serif" font-size="10.00">WriteCallback</text>
</a>
</g>
</g>
<!-- Node12&#45;&gt;Node13 -->
<g id="edge2" class="edge"><title>Node12&#45;&gt;Node13</title>
<path fill="none" stroke="midnightblue" d="M239.081,-10C247.101,-10 255.973,-10 264.704,-10"/>
<polygon fill="midnightblue" stroke="midnightblue" points="264.83,-13.5001 274.83,-10 264.83,-6.5001 264.83,-13.5001"/>
</g>
</g>
</svg>
