<?xml version="1.0" encoding="UTF-8" standalone="no"?>
<!DOCTYPE svg PUBLIC "-//W3C//DTD SVG 1.1//EN"
 "http://www.w3.org/Graphics/SVG/1.1/DTD/svg11.dtd">
<!-- Generated by graphviz version 2.38.0 (20140413.2041)
 -->
<!-- Title: NiceHashApi::getCurrentGlobalStats Pages: 1 -->
<svg width="374pt" height="39pt"
 viewBox="0.00 0.00 374.00 39.00" xmlns="http://www.w3.org/2000/svg" xmlns:xlink="http://www.w3.org/1999/xlink">
<g id="graph0" class="graph" transform="scale(1 1) rotate(0) translate(4 35)">
<title>NiceHashApi::getCurrentGlobalStats</title>
<!-- Node19 -->
<g id="node1" class="node"><title>Node19</title>
<polygon fill="#bfbfbf" stroke="black" points="0,-0.5 0,-30.5 154,-30.5 154,-0.5 0,-0.5"/>
<text text-anchor="start" x="8" y="-18.5" font-family="Helvetica,sans-Serif" font-size="10.00">NiceHashApi::getCurrentGlobal</text>
<text text-anchor="middle" x="77" y="-7.5" font-family="Helvetica,sans-Serif" font-size="10.00">Stats</text>
</g>
<!-- Node20 -->
<g id="node2" class="node"><title>Node20</title>
<g id="a_node2"><a xlink:href="classClient.html#a3603f0196f11c9a675ed9812487d5a63" target="_top" xlink:title="GET request the provided url and return the response body as a string. ">
<polygon fill="none" stroke="black" points="190,-6 190,-25 252,-25 252,-6 190,-6"/>
<text text-anchor="middle" x="221" y="-13" font-family="Helvetica,sans-Serif" font-size="10.00">Client::get</text>
</a>
</g>
</g>
<!-- Node19&#45;&gt;Node20 -->
<g id="edge1" class="edge"><title>Node19&#45;&gt;Node20</title>
<path fill="none" stroke="midnightblue" d="M154.404,-15.5C163.167,-15.5 171.82,-15.5 179.825,-15.5"/>
<polygon fill="midnightblue" stroke="midnightblue" points="179.929,-19.0001 189.929,-15.5 179.929,-12.0001 179.929,-19.0001"/>
</g>
<!-- Node21 -->
<g id="node3" class="node"><title>Node21</title>
<g id="a_node3"><a xlink:href="get_8cpp.html#ab54064eb3c1650bc846b7731da4b07b1" target="_top" xlink:title="WriteCallback">
<polygon fill="none" stroke="black" points="288,-6 288,-25 366,-25 366,-6 288,-6"/>
<text text-anchor="middle" x="327" y="-13" font-family="Helvetica,sans-Serif" font-size="10.00">WriteCallback</text>
</a>
</g>
</g>
<!-- Node20&#45;&gt;Node21 -->
<g id="edge2" class="edge"><title>Node20&#45;&gt;Node21</title>
<path fill="none" stroke="midnightblue" d="M252.081,-15.5C260.101,-15.5 268.973,-15.5 277.704,-15.5"/>
<polygon fill="midnightblue" stroke="midnightblue" points="277.83,-19.0001 287.83,-15.5 277.83,-12.0001 277.83,-19.0001"/>
</g>
</g>
</svg>
