<?xml version="1.0" encoding="UTF-8" standalone="no"?>
<!DOCTYPE svg PUBLIC "-//W3C//DTD SVG 1.1//EN"
 "http://www.w3.org/Graphics/SVG/1.1/DTD/svg11.dtd">
<!-- Generated by graphviz version 2.38.0 (20140413.2041)
 -->
<!-- Title: NiceHashApi::algorithmNameToId Pages: 1 -->
<svg width="345pt" height="88pt"
 viewBox="0.00 0.00 345.00 88.00" xmlns="http://www.w3.org/2000/svg" xmlns:xlink="http://www.w3.org/1999/xlink">
<g id="graph0" class="graph" transform="scale(1 1) rotate(0) translate(4 84)">
<title>NiceHashApi::algorithmNameToId</title>
<!-- Node8 -->
<g id="node1" class="node"><title>Node8</title>
<polygon fill="#bfbfbf" stroke="black" points="0,-30 0,-49 166,-49 166,-30 0,-30"/>
<text text-anchor="middle" x="83" y="-37" font-family="Helvetica,sans-Serif" font-size="10.00">NiceHashApi::algorithmNameToId</text>
</g>
<!-- Node9 -->
<g id="node2" class="node"><title>Node9</title>
<g id="a_node2"><a xlink:href="classNiceHashApi.html#aceafda7f234d706183d2f8aced09642d" target="_top" xlink:title="Get all orders for a given algorithm by name. ">
<polygon fill="none" stroke="black" points="202,-49.5 202,-79.5 337,-79.5 337,-49.5 202,-49.5"/>
<text text-anchor="start" x="210" y="-67.5" font-family="Helvetica,sans-Serif" font-size="10.00">NiceHashApi::getOrdersBy</text>
<text text-anchor="middle" x="269.5" y="-56.5" font-family="Helvetica,sans-Serif" font-size="10.00">Algorithm</text>
</a>
</g>
</g>
<!-- Node8&#45;&gt;Node9 -->
<g id="edge1" class="edge"><title>Node8&#45;&gt;Node9</title>
<path fill="none" stroke="midnightblue" d="M164.238,-50.3724C176.76,-52.0692 189.583,-53.8066 201.762,-55.4569"/>
<polygon fill="midnightblue" stroke="midnightblue" points="164.657,-46.8973 154.278,-49.0227 163.717,-53.8339 164.657,-46.8973"/>
</g>
<!-- Node10 -->
<g id="node3" class="node"><title>Node10</title>
<g id="a_node3"><a xlink:href="classNiceHashApi.html#aa991c34b2d2b66c6d2fbd390e34cf58c" target="_top" xlink:title="Get detailed stats for a provider&#39;s workers by algorithm name. ">
<polygon fill="none" stroke="black" points="204.5,-0.5 204.5,-30.5 334.5,-30.5 334.5,-0.5 204.5,-0.5"/>
<text text-anchor="start" x="212.5" y="-18.5" font-family="Helvetica,sans-Serif" font-size="10.00">NiceHashApi::getProvider</text>
<text text-anchor="middle" x="269.5" y="-7.5" font-family="Helvetica,sans-Serif" font-size="10.00">WorkerStats</text>
</a>
</g>
</g>
<!-- Node8&#45;&gt;Node10 -->
<g id="edge2" class="edge"><title>Node8&#45;&gt;Node10</title>
<path fill="none" stroke="midnightblue" d="M167.136,-28.6855C179.628,-27.0606 192.344,-25.4064 204.358,-23.8437"/>
<polygon fill="midnightblue" stroke="midnightblue" points="166.649,-25.2193 157.184,-29.9801 167.552,-32.1608 166.649,-25.2193"/>
</g>
</g>
</svg>
