<?xml version="1.0" encoding="UTF-8" standalone="no"?>
<!DOCTYPE svg PUBLIC "-//W3C//DTD SVG 1.1//EN"
 "http://www.w3.org/Graphics/SVG/1.1/DTD/svg11.dtd">
<!-- Generated by graphviz version 2.38.0 (20140413.2041)
 -->
<!-- Title: client.hpp Pages: 1 -->
<svg width="1438pt" height="151pt"
 viewBox="0.00 0.00 1438.00 151.00" xmlns="http://www.w3.org/2000/svg" xmlns:xlink="http://www.w3.org/1999/xlink">
<g id="graph0" class="graph" transform="scale(1 1) rotate(0) translate(4 147)">
<title>client.hpp</title>
<!-- Node2 -->
<g id="node1" class="node"><title>Node2</title>
<polygon fill="#bfbfbf" stroke="black" points="722,-123.5 722,-142.5 781,-142.5 781,-123.5 722,-123.5"/>
<text text-anchor="middle" x="751.5" y="-130.5" font-family="Helvetica,sans-Serif" font-size="10.00">client.hpp</text>
</g>
<!-- Node3 -->
<g id="node2" class="node"><title>Node3</title>
<g id="a_node2"><a xlink:href="nicehash-api_8hpp.html" target="_top" xlink:title="nicehash&#45;api.hpp">
<polygon fill="none" stroke="black" points="662.5,-67.5 662.5,-86.5 752.5,-86.5 752.5,-67.5 662.5,-67.5"/>
<text text-anchor="middle" x="707.5" y="-74.5" font-family="Helvetica,sans-Serif" font-size="10.00">nicehash&#45;api.hpp</text>
</a>
</g>
</g>
<!-- Node2&#45;&gt;Node3 -->
<g id="edge1" class="edge"><title>Node2&#45;&gt;Node3</title>
<path fill="none" stroke="midnightblue" d="M737.765,-115.144C730.099,-105.736 720.867,-94.4046 714.631,-86.7511"/>
<polygon fill="midnightblue" stroke="midnightblue" points="735.204,-117.541 744.234,-123.083 740.631,-113.12 735.204,-117.541"/>
</g>
<!-- Node14 -->
<g id="node13" class="node"><title>Node14</title>
<g id="a_node13"><a xlink:href="get_8cpp.html" target="_top" xlink:title="get.cpp">
<polygon fill="none" stroke="black" points="771,-67.5 771,-86.5 820,-86.5 820,-67.5 771,-67.5"/>
<text text-anchor="middle" x="795.5" y="-74.5" font-family="Helvetica,sans-Serif" font-size="10.00">get.cpp</text>
</a>
</g>
</g>
<!-- Node2&#45;&gt;Node14 -->
<g id="edge12" class="edge"><title>Node2&#45;&gt;Node14</title>
<path fill="none" stroke="midnightblue" d="M765.235,-115.144C772.901,-105.736 782.133,-94.4046 788.369,-86.7511"/>
<polygon fill="midnightblue" stroke="midnightblue" points="762.369,-113.12 758.766,-123.083 767.796,-117.541 762.369,-113.12"/>
</g>
<!-- Node4 -->
<g id="node3" class="node"><title>Node4</title>
<g id="a_node3"><a xlink:href="algorithmNameToId_8cpp.html" target="_top" xlink:title="algorithmNameToId.cpp">
<polygon fill="none" stroke="black" points="0,-6 0,-25 121,-25 121,-6 0,-6"/>
<text text-anchor="middle" x="60.5" y="-13" font-family="Helvetica,sans-Serif" font-size="10.00">algorithmNameToId.cpp</text>
</a>
</g>
</g>
<!-- Node3&#45;&gt;Node4 -->
<g id="edge2" class="edge"><title>Node3&#45;&gt;Node4</title>
<path fill="none" stroke="midnightblue" d="M652.233,-74.0159C549.194,-69.8018 320.93,-58.0384 130.5,-31 119.687,-29.4647 108.036,-27.2715 97.4019,-25.0542"/>
<polygon fill="midnightblue" stroke="midnightblue" points="652.267,-77.52 662.399,-74.4237 652.547,-70.5257 652.267,-77.52"/>
</g>
<!-- Node5 -->
<g id="node4" class="node"><title>Node5</title>
<g id="a_node4"><a xlink:href="getApiVersion_8cpp.html" target="_top" xlink:title="getApiVersion.cpp">
<polygon fill="none" stroke="black" points="139.5,-6 139.5,-25 235.5,-25 235.5,-6 139.5,-6"/>
<text text-anchor="middle" x="187.5" y="-13" font-family="Helvetica,sans-Serif" font-size="10.00">getApiVersion.cpp</text>
</a>
</g>
</g>
<!-- Node3&#45;&gt;Node5 -->
<g id="edge3" class="edge"><title>Node3&#45;&gt;Node5</title>
<path fill="none" stroke="midnightblue" d="M652.311,-73.3577C565.149,-68.5748 390.515,-56.5149 244.5,-31 235.648,-29.4533 226.147,-27.2565 217.488,-25.0394"/>
<polygon fill="midnightblue" stroke="midnightblue" points="652.326,-76.8634 662.499,-73.9053 652.701,-69.8735 652.326,-76.8634"/>
</g>
<!-- Node6 -->
<g id="node5" class="node"><title>Node6</title>
<g id="a_node5"><a xlink:href="getAverageGlobalStats_8cpp.html" target="_top" xlink:title="getAverageGlobalStats.cpp">
<polygon fill="none" stroke="black" points="253.5,-6 253.5,-25 389.5,-25 389.5,-6 253.5,-6"/>
<text text-anchor="middle" x="321.5" y="-13" font-family="Helvetica,sans-Serif" font-size="10.00">getAverageGlobalStats.cpp</text>
</a>
</g>
</g>
<!-- Node3&#45;&gt;Node6 -->
<g id="edge4" class="edge"><title>Node3&#45;&gt;Node6</title>
<path fill="none" stroke="midnightblue" d="M652.436,-68.6836C590.552,-60.2976 487.142,-45.794 398.5,-31 387.632,-29.1861 375.933,-27.0685 365.016,-25.0208"/>
<polygon fill="midnightblue" stroke="midnightblue" points="651.997,-72.1559 662.376,-70.0262 652.934,-65.2189 651.997,-72.1559"/>
</g>
<!-- Node7 -->
<g id="node6" class="node"><title>Node7</title>
<g id="a_node6"><a xlink:href="getCurrentGlobalStats_8cpp.html" target="_top" xlink:title="getCurrentGlobalStats.cpp">
<polygon fill="none" stroke="black" points="407.5,-6 407.5,-25 539.5,-25 539.5,-6 407.5,-6"/>
<text text-anchor="middle" x="473.5" y="-13" font-family="Helvetica,sans-Serif" font-size="10.00">getCurrentGlobalStats.cpp</text>
</a>
</g>
</g>
<!-- Node3&#45;&gt;Node7 -->
<g id="edge5" class="edge"><title>Node3&#45;&gt;Node7</title>
<path fill="none" stroke="midnightblue" d="M664.115,-64.9685C618.677,-53.4147 548.291,-35.5173 506.964,-25.0091"/>
<polygon fill="midnightblue" stroke="midnightblue" points="663.419,-68.4028 673.974,-67.4751 665.144,-61.6186 663.419,-68.4028"/>
</g>
<!-- Node8 -->
<g id="node7" class="node"><title>Node8</title>
<g id="a_node7"><a xlink:href="getDetailedProviderStats_8cpp.html" target="_top" xlink:title="getDetailedProviderStats.cpp">
<polygon fill="none" stroke="black" points="557.5,-6 557.5,-25 701.5,-25 701.5,-6 557.5,-6"/>
<text text-anchor="middle" x="629.5" y="-13" font-family="Helvetica,sans-Serif" font-size="10.00">getDetailedProviderStats.cpp</text>
</a>
</g>
</g>
<!-- Node3&#45;&gt;Node8 -->
<g id="edge6" class="edge"><title>Node3&#45;&gt;Node8</title>
<path fill="none" stroke="midnightblue" d="M688.221,-61.2938C673.259,-49.8803 653.041,-34.4577 640.655,-25.0091"/>
<polygon fill="midnightblue" stroke="midnightblue" points="686.251,-64.1928 696.325,-67.4751 690.496,-58.6272 686.251,-64.1928"/>
</g>
<!-- Node9 -->
<g id="node8" class="node"><title>Node9</title>
<g id="a_node8"><a xlink:href="getOrdersByAlgorithm_8cpp.html" target="_top" xlink:title="getOrdersByAlgorithm.cpp">
<polygon fill="none" stroke="black" points="720,-6 720,-25 851,-25 851,-6 720,-6"/>
<text text-anchor="middle" x="785.5" y="-13" font-family="Helvetica,sans-Serif" font-size="10.00">getOrdersByAlgorithm.cpp</text>
</a>
</g>
</g>
<!-- Node3&#45;&gt;Node9 -->
<g id="edge7" class="edge"><title>Node3&#45;&gt;Node9</title>
<path fill="none" stroke="midnightblue" d="M726.779,-61.2938C741.741,-49.8803 761.959,-34.4577 774.345,-25.0091"/>
<polygon fill="midnightblue" stroke="midnightblue" points="724.504,-58.6272 718.675,-67.4751 728.749,-64.1928 724.504,-58.6272"/>
</g>
<!-- Node10 -->
<g id="node9" class="node"><title>Node10</title>
<g id="a_node9"><a xlink:href="getProviderStats_8cpp.html" target="_top" xlink:title="getProviderStats.cpp">
<polygon fill="none" stroke="black" points="869.5,-6 869.5,-25 977.5,-25 977.5,-6 869.5,-6"/>
<text text-anchor="middle" x="923.5" y="-13" font-family="Helvetica,sans-Serif" font-size="10.00">getProviderStats.cpp</text>
</a>
</g>
</g>
<!-- Node3&#45;&gt;Node10 -->
<g id="edge8" class="edge"><title>Node3&#45;&gt;Node10</title>
<path fill="none" stroke="midnightblue" d="M748.343,-64.7493C790.308,-53.1894 854.703,-35.4511 892.61,-25.0091"/>
<polygon fill="midnightblue" stroke="midnightblue" points="747.159,-61.445 738.448,-67.4751 749.018,-68.1936 747.159,-61.445"/>
</g>
<!-- Node11 -->
<g id="node10" class="node"><title>Node11</title>
<g id="a_node10"><a xlink:href="getProviderWorkerStats_8cpp.html" target="_top" xlink:title="getProviderWorkerStats.cpp">
<polygon fill="none" stroke="black" points="995.5,-6 995.5,-25 1135.5,-25 1135.5,-6 995.5,-6"/>
<text text-anchor="middle" x="1065.5" y="-13" font-family="Helvetica,sans-Serif" font-size="10.00">getProviderWorkerStats.cpp</text>
</a>
</g>
</g>
<!-- Node3&#45;&gt;Node11 -->
<g id="edge9" class="edge"><title>Node3&#45;&gt;Node11</title>
<path fill="none" stroke="midnightblue" d="M762.195,-67.0494C762.297,-67.0329 762.399,-67.0165 762.5,-67 862.033,-50.8583 887.128,-48.1027 986.5,-31 997.356,-29.1315 1009.04,-27.0354 1020,-25.0301"/>
<polygon fill="midnightblue" stroke="midnightblue" points="761.83,-63.5628 752.521,-68.6222 762.953,-70.4721 761.83,-63.5628"/>
</g>
<!-- Node12 -->
<g id="node11" class="node"><title>Node12</title>
<g id="a_node11"><a xlink:href="throwExceptionIfAlgorithmInvalid_8cpp.html" target="_top" xlink:title="throwExceptionIfAlgorithm\lInvalid.cpp">
<polygon fill="none" stroke="black" points="1154,-0.5 1154,-30.5 1285,-30.5 1285,-0.5 1154,-0.5"/>
<text text-anchor="start" x="1162" y="-18.5" font-family="Helvetica,sans-Serif" font-size="10.00">throwExceptionIfAlgorithm</text>
<text text-anchor="middle" x="1219.5" y="-7.5" font-family="Helvetica,sans-Serif" font-size="10.00">Invalid.cpp</text>
</a>
</g>
</g>
<!-- Node3&#45;&gt;Node12 -->
<g id="edge10" class="edge"><title>Node3&#45;&gt;Node12</title>
<path fill="none" stroke="midnightblue" d="M762.857,-67.0532C933.357,-45.5863 978.912,-54.7523 1144.5,-31 1147.52,-30.5669 1150.6,-30.0946 1153.71,-29.5936"/>
<polygon fill="midnightblue" stroke="midnightblue" points="762.261,-63.6008 752.785,-68.3385 763.148,-70.5445 762.261,-63.6008"/>
</g>
<!-- Node13 -->
<g id="node12" class="node"><title>Node13</title>
<g id="a_node12"><a xlink:href="throwExceptionIfLocationInvalid_8cpp.html" target="_top" xlink:title="throwExceptionIfLocation\lInvalid.cpp">
<polygon fill="none" stroke="black" points="1303,-0.5 1303,-30.5 1430,-30.5 1430,-0.5 1303,-0.5"/>
<text text-anchor="start" x="1311" y="-18.5" font-family="Helvetica,sans-Serif" font-size="10.00">throwExceptionIfLocation</text>
<text text-anchor="middle" x="1366.5" y="-7.5" font-family="Helvetica,sans-Serif" font-size="10.00">Invalid.cpp</text>
</a>
</g>
</g>
<!-- Node3&#45;&gt;Node13 -->
<g id="edge11" class="edge"><title>Node3&#45;&gt;Node13</title>
<path fill="none" stroke="midnightblue" d="M762.726,-67.1064C999.642,-40.443 1062.82,-62.0309 1294.5,-31 1297.28,-30.6276 1300.11,-30.2121 1302.97,-29.7637"/>
<polygon fill="midnightblue" stroke="midnightblue" points="762.311,-63.631 752.773,-68.2433 763.106,-70.5857 762.311,-63.631"/>
</g>
</g>
</svg>
