<?xml version="1.0" encoding="UTF-8" standalone="no"?>
<!DOCTYPE svg PUBLIC "-//W3C//DTD SVG 1.1//EN"
 "http://www.w3.org/Graphics/SVG/1.1/DTD/svg11.dtd">
<!-- Generated by graphviz version 2.38.0 (20140413.2041)
 -->
<!-- Title: WriteCallback Pages: 1 -->
<svg width="549pt" height="323pt"
 viewBox="0.00 0.00 549.00 322.50" xmlns="http://www.w3.org/2000/svg" xmlns:xlink="http://www.w3.org/1999/xlink">
<g id="graph0" class="graph" transform="scale(1 1) rotate(0) translate(4 318.5)">
<title>WriteCallback</title>
<!-- Node1 -->
<g id="node1" class="node"><title>Node1</title>
<polygon fill="#bfbfbf" stroke="black" points="0,-153 0,-172 78,-172 78,-153 0,-153"/>
<text text-anchor="middle" x="39" y="-160" font-family="Helvetica,sans-Serif" font-size="10.00">WriteCallback</text>
</g>
<!-- Node2 -->
<g id="node2" class="node"><title>Node2</title>
<g id="a_node2"><a xlink:href="classClient.html#a3603f0196f11c9a675ed9812487d5a63" target="_top" xlink:title="GET request the provided url and return the response body as a string. ">
<polygon fill="none" stroke="black" points="114,-153 114,-172 176,-172 176,-153 114,-153"/>
<text text-anchor="middle" x="145" y="-160" font-family="Helvetica,sans-Serif" font-size="10.00">Client::get</text>
</a>
</g>
</g>
<!-- Node1&#45;&gt;Node2 -->
<g id="edge1" class="edge"><title>Node1&#45;&gt;Node2</title>
<path fill="none" stroke="midnightblue" d="M88.1976,-162.5C96.8745,-162.5 105.693,-162.5 113.681,-162.5"/>
<polygon fill="midnightblue" stroke="midnightblue" points="88.1353,-159 78.1352,-162.5 88.1352,-166 88.1353,-159"/>
</g>
<!-- Node3 -->
<g id="node3" class="node"><title>Node3</title>
<g id="a_node3"><a xlink:href="classNiceHashApi.html#a484c9564d7e6bfbdb11660d14d52a2c0" target="_top" xlink:title="Get API version. ">
<polygon fill="none" stroke="black" points="220.5,-295 220.5,-314 361.5,-314 361.5,-295 220.5,-295"/>
<text text-anchor="middle" x="291" y="-302" font-family="Helvetica,sans-Serif" font-size="10.00">NiceHashApi::getApiVersion</text>
</a>
</g>
</g>
<!-- Node2&#45;&gt;Node3 -->
<g id="edge2" class="edge"><title>Node2&#45;&gt;Node3</title>
<path fill="none" stroke="midnightblue" d="M151.089,-182.252C159.216,-209.715 177.806,-259.037 212,-285.5 216.96,-289.339 222.586,-292.415 228.492,-294.878"/>
<polygon fill="midnightblue" stroke="midnightblue" points="154.363,-180.959 148.313,-172.262 147.619,-182.834 154.363,-180.959"/>
</g>
<!-- Node4 -->
<g id="node4" class="node"><title>Node4</title>
<g id="a_node4"><a xlink:href="classNiceHashApi.html#aad59dbb0ee392bb6e3ebe9faac5c5585" target="_top" xlink:title="Get average (24h) global stats. ">
<polygon fill="none" stroke="black" points="212,-245.5 212,-275.5 370,-275.5 370,-245.5 212,-245.5"/>
<text text-anchor="start" x="220" y="-263.5" font-family="Helvetica,sans-Serif" font-size="10.00">NiceHashApi::getAverageGlobal</text>
<text text-anchor="middle" x="291" y="-252.5" font-family="Helvetica,sans-Serif" font-size="10.00">Stats</text>
</a>
</g>
</g>
<!-- Node2&#45;&gt;Node4 -->
<g id="edge3" class="edge"><title>Node2&#45;&gt;Node4</title>
<path fill="none" stroke="midnightblue" d="M157.786,-180.613C169.599,-197.398 189.262,-221.91 212,-236.5 217.366,-239.943 223.256,-242.917 229.319,-245.481"/>
<polygon fill="midnightblue" stroke="midnightblue" points="160.578,-178.495 152.061,-172.194 154.79,-182.431 160.578,-178.495"/>
</g>
<!-- Node5 -->
<g id="node5" class="node"><title>Node5</title>
<g id="a_node5"><a xlink:href="classNiceHashApi.html#af3658d1d968e014d8db56f980b26e322" target="_top" xlink:title="Get current global stats. ">
<polygon fill="none" stroke="black" points="214,-196.5 214,-226.5 368,-226.5 368,-196.5 214,-196.5"/>
<text text-anchor="start" x="222" y="-214.5" font-family="Helvetica,sans-Serif" font-size="10.00">NiceHashApi::getCurrentGlobal</text>
<text text-anchor="middle" x="291" y="-203.5" font-family="Helvetica,sans-Serif" font-size="10.00">Stats</text>
</a>
</g>
</g>
<!-- Node2&#45;&gt;Node5 -->
<g id="edge4" class="edge"><title>Node2&#45;&gt;Node5</title>
<path fill="none" stroke="midnightblue" d="M179.529,-175.673C189.89,-179.615 201.372,-183.856 212,-187.5 220.846,-190.533 230.315,-193.597 239.498,-196.475"/>
<polygon fill="midnightblue" stroke="midnightblue" points="180.594,-172.332 170.004,-172.013 178.084,-178.867 180.594,-172.332"/>
</g>
<!-- Node6 -->
<g id="node6" class="node"><title>Node6</title>
<g id="a_node6"><a xlink:href="classNiceHashApi.html#a9e62eb21a0ee5927760b4b69c600b0af" target="_top" xlink:title="Get detailed current stats for provider for all algorithms. ">
<polygon fill="none" stroke="black" points="226,-147.5 226,-177.5 356,-177.5 356,-147.5 226,-147.5"/>
<text text-anchor="start" x="234" y="-165.5" font-family="Helvetica,sans-Serif" font-size="10.00">NiceHashApi::getDetailed</text>
<text text-anchor="middle" x="291" y="-154.5" font-family="Helvetica,sans-Serif" font-size="10.00">ProviderStats</text>
</a>
</g>
</g>
<!-- Node2&#45;&gt;Node6 -->
<g id="edge5" class="edge"><title>Node2&#45;&gt;Node6</title>
<path fill="none" stroke="midnightblue" d="M186.478,-162.5C198.683,-162.5 212.393,-162.5 225.744,-162.5"/>
<polygon fill="midnightblue" stroke="midnightblue" points="186.187,-159 176.187,-162.5 186.187,-166 186.187,-159"/>
</g>
<!-- Node7 -->
<g id="node7" class="node"><title>Node7</title>
<g id="a_node7"><a xlink:href="classNiceHashApi.html#a351c8c49d65aa3bfec9f791fab61d0dc" target="_top" xlink:title="Get all orders for a given algorithm id. ">
<polygon fill="none" stroke="black" points="223.5,-98.5 223.5,-128.5 358.5,-128.5 358.5,-98.5 223.5,-98.5"/>
<text text-anchor="start" x="231.5" y="-116.5" font-family="Helvetica,sans-Serif" font-size="10.00">NiceHashApi::getOrdersBy</text>
<text text-anchor="middle" x="291" y="-105.5" font-family="Helvetica,sans-Serif" font-size="10.00">Algorithm</text>
</a>
</g>
</g>
<!-- Node2&#45;&gt;Node7 -->
<g id="edge6" class="edge"><title>Node2&#45;&gt;Node7</title>
<path fill="none" stroke="midnightblue" d="M181.191,-149.419C191.126,-145.803 201.963,-141.932 212,-138.5 221.688,-135.187 232.096,-131.761 242.053,-128.546"/>
<polygon fill="midnightblue" stroke="midnightblue" points="179.807,-146.198 171.62,-152.923 182.214,-152.771 179.807,-146.198"/>
</g>
<!-- Node9 -->
<g id="node9" class="node"><title>Node9</title>
<g id="a_node9"><a xlink:href="classNiceHashApi.html#a230aa00b8f54f908765665ba3d42dedc" target="_top" xlink:title="Get current stats for provider for all algorithms. ">
<polygon fill="none" stroke="black" points="226,-49.5 226,-79.5 356,-79.5 356,-49.5 226,-49.5"/>
<text text-anchor="start" x="234" y="-67.5" font-family="Helvetica,sans-Serif" font-size="10.00">NiceHashApi::getProvider</text>
<text text-anchor="middle" x="291" y="-56.5" font-family="Helvetica,sans-Serif" font-size="10.00">Stats</text>
</a>
</g>
</g>
<!-- Node2&#45;&gt;Node9 -->
<g id="edge8" class="edge"><title>Node2&#45;&gt;Node9</title>
<path fill="none" stroke="midnightblue" d="M157.878,-144.696C169.758,-128.184 189.468,-104.036 212,-89.5 217.975,-85.6456 224.591,-82.3431 231.37,-79.524"/>
<polygon fill="midnightblue" stroke="midnightblue" points="154.956,-142.768 152.116,-152.975 160.701,-146.767 154.956,-142.768"/>
</g>
<!-- Node10 -->
<g id="node10" class="node"><title>Node10</title>
<g id="a_node10"><a xlink:href="classNiceHashApi.html#a080715e168207776178ae7d7e1da6893" target="_top" xlink:title="Get detailed stats for a provider&#39;s workers by algorithm id. ">
<polygon fill="none" stroke="black" points="226,-0.5 226,-30.5 356,-30.5 356,-0.5 226,-0.5"/>
<text text-anchor="start" x="234" y="-18.5" font-family="Helvetica,sans-Serif" font-size="10.00">NiceHashApi::getProvider</text>
<text text-anchor="middle" x="291" y="-7.5" font-family="Helvetica,sans-Serif" font-size="10.00">WorkerStats</text>
</a>
</g>
</g>
<!-- Node2&#45;&gt;Node10 -->
<g id="edge9" class="edge"><title>Node2&#45;&gt;Node10</title>
<path fill="none" stroke="midnightblue" d="M151.311,-143.026C159.703,-115.895 178.609,-66.9694 212,-39.5 216.158,-36.0796 220.8,-33.1458 225.691,-30.6295"/>
<polygon fill="midnightblue" stroke="midnightblue" points="147.875,-142.305 148.43,-152.886 154.594,-144.268 147.875,-142.305"/>
</g>
<!-- Node8 -->
<g id="node8" class="node"><title>Node8</title>
<g id="a_node8"><a xlink:href="classNiceHashApi.html#aceafda7f234d706183d2f8aced09642d" target="_top" xlink:title="Get all orders for a given algorithm by name. ">
<polygon fill="none" stroke="black" points="406,-98.5 406,-128.5 541,-128.5 541,-98.5 406,-98.5"/>
<text text-anchor="start" x="414" y="-116.5" font-family="Helvetica,sans-Serif" font-size="10.00">NiceHashApi::getOrdersBy</text>
<text text-anchor="middle" x="473.5" y="-105.5" font-family="Helvetica,sans-Serif" font-size="10.00">Algorithm</text>
</a>
</g>
</g>
<!-- Node7&#45;&gt;Node8 -->
<g id="edge7" class="edge"><title>Node7&#45;&gt;Node8</title>
<path fill="none" stroke="midnightblue" d="M368.902,-113.5C381.168,-113.5 393.769,-113.5 405.774,-113.5"/>
<polygon fill="midnightblue" stroke="midnightblue" points="368.699,-110 358.699,-113.5 368.699,-117 368.699,-110"/>
</g>
<!-- Node11 -->
<g id="node11" class="node"><title>Node11</title>
<g id="a_node11"><a xlink:href="classNiceHashApi.html#aa991c34b2d2b66c6d2fbd390e34cf58c" target="_top" xlink:title="Get detailed stats for a provider&#39;s workers by algorithm name. ">
<polygon fill="none" stroke="black" points="408.5,-0.5 408.5,-30.5 538.5,-30.5 538.5,-0.5 408.5,-0.5"/>
<text text-anchor="start" x="416.5" y="-18.5" font-family="Helvetica,sans-Serif" font-size="10.00">NiceHashApi::getProvider</text>
<text text-anchor="middle" x="473.5" y="-7.5" font-family="Helvetica,sans-Serif" font-size="10.00">WorkerStats</text>
</a>
</g>
</g>
<!-- Node10&#45;&gt;Node11 -->
<g id="edge10" class="edge"><title>Node10&#45;&gt;Node11</title>
<path fill="none" stroke="midnightblue" d="M366.194,-15.5C380.15,-15.5 394.636,-15.5 408.257,-15.5"/>
<polygon fill="midnightblue" stroke="midnightblue" points="366.146,-12.0001 356.146,-15.5 366.146,-19.0001 366.146,-12.0001"/>
</g>
</g>
</svg>
