<?xml version="1.0" encoding="UTF-8" standalone="no"?>
<!DOCTYPE svg PUBLIC "-//W3C//DTD SVG 1.1//EN"
 "http://www.w3.org/Graphics/SVG/1.1/DTD/svg11.dtd">
<!-- Generated by graphviz version 2.38.0 (20140413.2041)
 -->
<!-- Title: get.cpp Pages: 1 -->
<svg width="208pt" height="140pt"
 viewBox="0.00 0.00 208.18 140.00" xmlns="http://www.w3.org/2000/svg" xmlns:xlink="http://www.w3.org/1999/xlink">
<g id="graph0" class="graph" transform="scale(1 1) rotate(0) translate(4 136)">
<title>get.cpp</title>
<!-- Node0 -->
<g id="node1" class="node"><title>Node0</title>
<polygon fill="#bfbfbf" stroke="black" points="17.6833,-112.5 17.6833,-131.5 66.6833,-131.5 66.6833,-112.5 17.6833,-112.5"/>
<text text-anchor="middle" x="42.1833" y="-119.5" font-family="Helvetica,sans-Serif" font-size="10.00">get.cpp</text>
</g>
<!-- Node1 -->
<g id="node2" class="node"><title>Node1</title>
<polygon fill="none" stroke="#bfbfbf" points="43.6833,-0.5 43.6833,-19.5 84.6833,-19.5 84.6833,-0.5 43.6833,-0.5"/>
<text text-anchor="middle" x="64.1833" y="-7.5" font-family="Helvetica,sans-Serif" font-size="10.00">string</text>
</g>
<!-- Node0&#45;&gt;Node1 -->
<g id="edge1" class="edge"><title>Node0&#45;&gt;Node1</title>
<path fill="none" stroke="midnightblue" d="M30.5872,-112.398C15.6039,-100.167 -7.37556,-76.9104 3.18327,-56 9.99016,-42.5199 22.951,-32.083 35.1812,-24.6696"/>
<polygon fill="midnightblue" stroke="midnightblue" points="37.2531,-27.5214 44.2772,-19.5896 33.8399,-21.4099 37.2531,-27.5214"/>
</g>
<!-- Node2 -->
<g id="node3" class="node"><title>Node2</title>
<polygon fill="none" stroke="#bfbfbf" points="12.6833,-56.5 12.6833,-75.5 71.6833,-75.5 71.6833,-56.5 12.6833,-56.5"/>
<text text-anchor="middle" x="42.1833" y="-63.5" font-family="Helvetica,sans-Serif" font-size="10.00">curl/curl.h</text>
</g>
<!-- Node0&#45;&gt;Node2 -->
<g id="edge2" class="edge"><title>Node0&#45;&gt;Node2</title>
<path fill="none" stroke="midnightblue" d="M42.1833,-112.083C42.1833,-105.006 42.1833,-94.8611 42.1833,-85.9865"/>
<polygon fill="midnightblue" stroke="midnightblue" points="45.6834,-85.751 42.1833,-75.7511 38.6834,-85.7511 45.6834,-85.751"/>
</g>
<!-- Node3 -->
<g id="node4" class="node"><title>Node3</title>
<g id="a_node4"><a xlink:href="client_8hpp.html" target="_top" xlink:title="../../include/client.hpp">
<polygon fill="none" stroke="black" points="90.1833,-56.5 90.1833,-75.5 200.183,-75.5 200.183,-56.5 90.1833,-56.5"/>
<text text-anchor="middle" x="145.183" y="-63.5" font-family="Helvetica,sans-Serif" font-size="10.00">../../include/client.hpp</text>
</a>
</g>
</g>
<!-- Node0&#45;&gt;Node3 -->
<g id="edge3" class="edge"><title>Node0&#45;&gt;Node3</title>
<path fill="none" stroke="midnightblue" d="M58.732,-112.324C75.1749,-103.703 100.618,-90.3643 119.652,-80.3855"/>
<polygon fill="midnightblue" stroke="midnightblue" points="121.444,-83.3977 128.676,-75.6545 118.194,-77.198 121.444,-83.3977"/>
</g>
<!-- Node3&#45;&gt;Node1 -->
<g id="edge4" class="edge"><title>Node3&#45;&gt;Node1</title>
<path fill="none" stroke="midnightblue" d="M132.169,-56.324C119.652,-47.979 100.502,-35.2122 85.7119,-25.3524"/>
<polygon fill="midnightblue" stroke="midnightblue" points="87.427,-22.2894 77.165,-19.6545 83.5441,-28.1137 87.427,-22.2894"/>
</g>
</g>
</svg>
