<?xml version="1.0" encoding="UTF-8" standalone="no"?>
<!DOCTYPE svg PUBLIC "-//W3C//DTD SVG 1.1//EN"
 "http://www.w3.org/Graphics/SVG/1.1/DTD/svg11.dtd">
<!-- Generated by graphviz version 2.38.0 (20140413.2041)
 -->
<!-- Title: getAverageGlobalStats.cpp Pages: 1 -->
<svg width="171pt" height="207pt"
 viewBox="0.00 0.00 170.50 207.00" xmlns="http://www.w3.org/2000/svg" xmlns:xlink="http://www.w3.org/1999/xlink">
<g id="graph0" class="graph" transform="scale(1 1) rotate(0) translate(4 203)">
<title>getAverageGlobalStats.cpp</title>
<!-- Node0 -->
<g id="node1" class="node"><title>Node0</title>
<polygon fill="#bfbfbf" stroke="black" points="0,-179.5 0,-198.5 136,-198.5 136,-179.5 0,-179.5"/>
<text text-anchor="middle" x="68" y="-186.5" font-family="Helvetica,sans-Serif" font-size="10.00">getAverageGlobalStats.cpp</text>
</g>
<!-- Node1 -->
<g id="node2" class="node"><title>Node1</title>
<polygon fill="none" stroke="#bfbfbf" points="44.5,-0.5 44.5,-19.5 85.5,-19.5 85.5,-0.5 44.5,-0.5"/>
<text text-anchor="middle" x="65" y="-7.5" font-family="Helvetica,sans-Serif" font-size="10.00">string</text>
</g>
<!-- Node0&#45;&gt;Node1 -->
<g id="edge1" class="edge"><title>Node0&#45;&gt;Node1</title>
<path fill="none" stroke="midnightblue" d="M62.3622,-179.481C56.946,-170.745 49.1363,-156.556 46,-143 36.7301,-102.933 49.4711,-54.9188 58.1413,-29.2749"/>
<polygon fill="midnightblue" stroke="midnightblue" points="61.4781,-30.3373 61.5318,-19.7426 54.8829,-27.9914 61.4781,-30.3373"/>
</g>
<!-- Node2 -->
<g id="node3" class="node"><title>Node2</title>
<g id="a_node3"><a xlink:href="nicehash-api_8hpp.html" target="_top" xlink:title="../../include/nicehash\l&#45;api.hpp">
<polygon fill="none" stroke="black" points="55.5,-112.5 55.5,-142.5 162.5,-142.5 162.5,-112.5 55.5,-112.5"/>
<text text-anchor="start" x="63.5" y="-130.5" font-family="Helvetica,sans-Serif" font-size="10.00">../../include/nicehash</text>
<text text-anchor="middle" x="109" y="-119.5" font-family="Helvetica,sans-Serif" font-size="10.00">&#45;api.hpp</text>
</a>
</g>
</g>
<!-- Node0&#45;&gt;Node2 -->
<g id="edge2" class="edge"><title>Node0&#45;&gt;Node2</title>
<path fill="none" stroke="midnightblue" d="M73.8743,-179.475C79.012,-172.019 86.7071,-160.852 93.5864,-150.869"/>
<polygon fill="midnightblue" stroke="midnightblue" points="96.545,-152.743 99.3371,-142.523 90.7809,-148.771 96.545,-152.743"/>
</g>
<!-- Node2&#45;&gt;Node1 -->
<g id="edge3" class="edge"><title>Node2&#45;&gt;Node1</title>
<path fill="none" stroke="midnightblue" d="M101.09,-112.219C95.7888,-102.269 88.9075,-88.5768 84,-76 77.99,-60.5978 72.8496,-42.5033 69.4369,-29.322"/>
<polygon fill="midnightblue" stroke="midnightblue" points="72.8198,-28.4224 66.9954,-19.5722 66.0294,-30.1229 72.8198,-28.4224"/>
</g>
<!-- Node3 -->
<g id="node4" class="node"><title>Node3</title>
<g id="a_node4"><a xlink:href="client_8hpp.html" target="_top" xlink:title="client.hpp">
<polygon fill="none" stroke="black" points="93.5,-56.5 93.5,-75.5 152.5,-75.5 152.5,-56.5 93.5,-56.5"/>
<text text-anchor="middle" x="123" y="-63.5" font-family="Helvetica,sans-Serif" font-size="10.00">client.hpp</text>
</a>
</g>
</g>
<!-- Node2&#45;&gt;Node3 -->
<g id="edge4" class="edge"><title>Node2&#45;&gt;Node3</title>
<path fill="none" stroke="midnightblue" d="M112.318,-112.399C114.205,-104.377 116.592,-94.2328 118.631,-85.569"/>
<polygon fill="midnightblue" stroke="midnightblue" points="122.079,-86.1936 120.963,-75.6578 115.265,-84.5903 122.079,-86.1936"/>
</g>
<!-- Node3&#45;&gt;Node1 -->
<g id="edge5" class="edge"><title>Node3&#45;&gt;Node1</title>
<path fill="none" stroke="midnightblue" d="M113.681,-56.324C105.107,-48.3414 92.1878,-36.3128 81.8124,-26.6529"/>
<polygon fill="midnightblue" stroke="midnightblue" points="84.1922,-24.0865 74.4883,-19.8339 79.4223,-29.2098 84.1922,-24.0865"/>
</g>
</g>
</svg>
