<?xml version="1.0" encoding="UTF-8" standalone="no"?>
<!DOCTYPE svg PUBLIC "-//W3C//DTD SVG 1.1//EN"
 "http://www.w3.org/Graphics/SVG/1.1/DTD/svg11.dtd">
<!-- Generated by graphviz version 2.38.0 (20140413.2041)
 -->
<!-- Title: getApiVersion.cpp Pages: 1 -->
<svg width="151pt" height="207pt"
 viewBox="0.00 0.00 150.50 207.00" xmlns="http://www.w3.org/2000/svg" xmlns:xlink="http://www.w3.org/1999/xlink">
<g id="graph0" class="graph" transform="scale(1 1) rotate(0) translate(4 203)">
<title>getApiVersion.cpp</title>
<!-- Node0 -->
<g id="node1" class="node"><title>Node0</title>
<polygon fill="#bfbfbf" stroke="black" points="0,-179.5 0,-198.5 96,-198.5 96,-179.5 0,-179.5"/>
<text text-anchor="middle" x="48" y="-186.5" font-family="Helvetica,sans-Serif" font-size="10.00">getApiVersion.cpp</text>
</g>
<!-- Node1 -->
<g id="node2" class="node"><title>Node1</title>
<polygon fill="none" stroke="#bfbfbf" points="24.5,-0.5 24.5,-19.5 65.5,-19.5 65.5,-0.5 24.5,-0.5"/>
<text text-anchor="middle" x="45" y="-7.5" font-family="Helvetica,sans-Serif" font-size="10.00">string</text>
</g>
<!-- Node0&#45;&gt;Node1 -->
<g id="edge1" class="edge"><title>Node0&#45;&gt;Node1</title>
<path fill="none" stroke="midnightblue" d="M42.3622,-179.481C36.946,-170.745 29.1363,-156.556 26,-143 16.7301,-102.933 29.4711,-54.9188 38.1413,-29.2749"/>
<polygon fill="midnightblue" stroke="midnightblue" points="41.4781,-30.3373 41.5318,-19.7426 34.8829,-27.9914 41.4781,-30.3373"/>
</g>
<!-- Node2 -->
<g id="node3" class="node"><title>Node2</title>
<g id="a_node3"><a xlink:href="nicehash-api_8hpp.html" target="_top" xlink:title="../../include/nicehash\l&#45;api.hpp">
<polygon fill="none" stroke="black" points="35.5,-112.5 35.5,-142.5 142.5,-142.5 142.5,-112.5 35.5,-112.5"/>
<text text-anchor="start" x="43.5" y="-130.5" font-family="Helvetica,sans-Serif" font-size="10.00">../../include/nicehash</text>
<text text-anchor="middle" x="89" y="-119.5" font-family="Helvetica,sans-Serif" font-size="10.00">&#45;api.hpp</text>
</a>
</g>
</g>
<!-- Node0&#45;&gt;Node2 -->
<g id="edge2" class="edge"><title>Node0&#45;&gt;Node2</title>
<path fill="none" stroke="midnightblue" d="M53.8743,-179.475C59.012,-172.019 66.7071,-160.852 73.5864,-150.869"/>
<polygon fill="midnightblue" stroke="midnightblue" points="76.545,-152.743 79.3371,-142.523 70.7809,-148.771 76.545,-152.743"/>
</g>
<!-- Node2&#45;&gt;Node1 -->
<g id="edge3" class="edge"><title>Node2&#45;&gt;Node1</title>
<path fill="none" stroke="midnightblue" d="M81.0899,-112.219C75.7888,-102.269 68.9075,-88.5768 64,-76 57.99,-60.5978 52.8496,-42.5033 49.4369,-29.322"/>
<polygon fill="midnightblue" stroke="midnightblue" points="52.8198,-28.4224 46.9954,-19.5722 46.0294,-30.1229 52.8198,-28.4224"/>
</g>
<!-- Node3 -->
<g id="node4" class="node"><title>Node3</title>
<g id="a_node4"><a xlink:href="client_8hpp.html" target="_top" xlink:title="client.hpp">
<polygon fill="none" stroke="black" points="73.5,-56.5 73.5,-75.5 132.5,-75.5 132.5,-56.5 73.5,-56.5"/>
<text text-anchor="middle" x="103" y="-63.5" font-family="Helvetica,sans-Serif" font-size="10.00">client.hpp</text>
</a>
</g>
</g>
<!-- Node2&#45;&gt;Node3 -->
<g id="edge4" class="edge"><title>Node2&#45;&gt;Node3</title>
<path fill="none" stroke="midnightblue" d="M92.3178,-112.399C94.2054,-104.377 96.5923,-94.2328 98.6308,-85.569"/>
<polygon fill="midnightblue" stroke="midnightblue" points="102.079,-86.1936 100.963,-75.6578 95.2654,-84.5903 102.079,-86.1936"/>
</g>
<!-- Node3&#45;&gt;Node1 -->
<g id="edge5" class="edge"><title>Node3&#45;&gt;Node1</title>
<path fill="none" stroke="midnightblue" d="M93.6813,-56.324C85.1074,-48.3414 72.1878,-36.3128 61.8124,-26.6529"/>
<polygon fill="midnightblue" stroke="midnightblue" points="64.1922,-24.0865 54.4883,-19.8339 59.4223,-29.2098 64.1922,-24.0865"/>
</g>
</g>
</svg>
