<?xml version="1.0" encoding="UTF-8" standalone="no"?>
<!DOCTYPE svg PUBLIC "-//W3C//DTD SVG 1.1//EN"
 "http://www.w3.org/Graphics/SVG/1.1/DTD/svg11.dtd">
<!-- Generated by graphviz version 2.38.0 (20140413.2041)
 -->
<!-- Title: getCurrentGlobalStats.cpp Pages: 1 -->
<svg width="169pt" height="207pt"
 viewBox="0.00 0.00 168.50 207.00" xmlns="http://www.w3.org/2000/svg" xmlns:xlink="http://www.w3.org/1999/xlink">
<g id="graph0" class="graph" transform="scale(1 1) rotate(0) translate(4 203)">
<title>getCurrentGlobalStats.cpp</title>
<!-- Node0 -->
<g id="node1" class="node"><title>Node0</title>
<polygon fill="#bfbfbf" stroke="black" points="0,-179.5 0,-198.5 132,-198.5 132,-179.5 0,-179.5"/>
<text text-anchor="middle" x="66" y="-186.5" font-family="Helvetica,sans-Serif" font-size="10.00">getCurrentGlobalStats.cpp</text>
</g>
<!-- Node1 -->
<g id="node2" class="node"><title>Node1</title>
<polygon fill="none" stroke="#bfbfbf" points="42.5,-0.5 42.5,-19.5 83.5,-19.5 83.5,-0.5 42.5,-0.5"/>
<text text-anchor="middle" x="63" y="-7.5" font-family="Helvetica,sans-Serif" font-size="10.00">string</text>
</g>
<!-- Node0&#45;&gt;Node1 -->
<g id="edge1" class="edge"><title>Node0&#45;&gt;Node1</title>
<path fill="none" stroke="midnightblue" d="M60.3622,-179.481C54.946,-170.745 47.1363,-156.556 44,-143 34.7301,-102.933 47.4711,-54.9188 56.1413,-29.2749"/>
<polygon fill="midnightblue" stroke="midnightblue" points="59.4781,-30.3373 59.5318,-19.7426 52.8829,-27.9914 59.4781,-30.3373"/>
</g>
<!-- Node2 -->
<g id="node3" class="node"><title>Node2</title>
<g id="a_node3"><a xlink:href="nicehash-api_8hpp.html" target="_top" xlink:title="../../include/nicehash\l&#45;api.hpp">
<polygon fill="none" stroke="black" points="53.5,-112.5 53.5,-142.5 160.5,-142.5 160.5,-112.5 53.5,-112.5"/>
<text text-anchor="start" x="61.5" y="-130.5" font-family="Helvetica,sans-Serif" font-size="10.00">../../include/nicehash</text>
<text text-anchor="middle" x="107" y="-119.5" font-family="Helvetica,sans-Serif" font-size="10.00">&#45;api.hpp</text>
</a>
</g>
</g>
<!-- Node0&#45;&gt;Node2 -->
<g id="edge2" class="edge"><title>Node0&#45;&gt;Node2</title>
<path fill="none" stroke="midnightblue" d="M71.8743,-179.475C77.012,-172.019 84.7071,-160.852 91.5864,-150.869"/>
<polygon fill="midnightblue" stroke="midnightblue" points="94.545,-152.743 97.3371,-142.523 88.7809,-148.771 94.545,-152.743"/>
</g>
<!-- Node2&#45;&gt;Node1 -->
<g id="edge3" class="edge"><title>Node2&#45;&gt;Node1</title>
<path fill="none" stroke="midnightblue" d="M99.0899,-112.219C93.7888,-102.269 86.9075,-88.5768 82,-76 75.99,-60.5978 70.8496,-42.5033 67.4369,-29.322"/>
<polygon fill="midnightblue" stroke="midnightblue" points="70.8198,-28.4224 64.9954,-19.5722 64.0294,-30.1229 70.8198,-28.4224"/>
</g>
<!-- Node3 -->
<g id="node4" class="node"><title>Node3</title>
<g id="a_node4"><a xlink:href="client_8hpp.html" target="_top" xlink:title="client.hpp">
<polygon fill="none" stroke="black" points="91.5,-56.5 91.5,-75.5 150.5,-75.5 150.5,-56.5 91.5,-56.5"/>
<text text-anchor="middle" x="121" y="-63.5" font-family="Helvetica,sans-Serif" font-size="10.00">client.hpp</text>
</a>
</g>
</g>
<!-- Node2&#45;&gt;Node3 -->
<g id="edge4" class="edge"><title>Node2&#45;&gt;Node3</title>
<path fill="none" stroke="midnightblue" d="M110.318,-112.399C112.205,-104.377 114.592,-94.2328 116.631,-85.569"/>
<polygon fill="midnightblue" stroke="midnightblue" points="120.079,-86.1936 118.963,-75.6578 113.265,-84.5903 120.079,-86.1936"/>
</g>
<!-- Node3&#45;&gt;Node1 -->
<g id="edge5" class="edge"><title>Node3&#45;&gt;Node1</title>
<path fill="none" stroke="midnightblue" d="M111.681,-56.324C103.107,-48.3414 90.1878,-36.3128 79.8124,-26.6529"/>
<polygon fill="midnightblue" stroke="midnightblue" points="82.1922,-24.0865 72.4883,-19.8339 77.4223,-29.2098 82.1922,-24.0865"/>
</g>
</g>
</svg>
