<?xml version="1.0" encoding="UTF-8" standalone="no"?>
<!DOCTYPE svg PUBLIC "-//W3C//DTD SVG 1.1//EN"
 "http://www.w3.org/Graphics/SVG/1.1/DTD/svg11.dtd">
<!-- Generated by graphviz version 2.38.0 (20140413.2041)
 -->
<!-- Title: getDetailedProviderStats.cpp Pages: 1 -->
<svg width="175pt" height="207pt"
 viewBox="0.00 0.00 174.50 207.00" xmlns="http://www.w3.org/2000/svg" xmlns:xlink="http://www.w3.org/1999/xlink">
<g id="graph0" class="graph" transform="scale(1 1) rotate(0) translate(4 203)">
<title>getDetailedProviderStats.cpp</title>
<!-- Node0 -->
<g id="node1" class="node"><title>Node0</title>
<polygon fill="#bfbfbf" stroke="black" points="0,-179.5 0,-198.5 144,-198.5 144,-179.5 0,-179.5"/>
<text text-anchor="middle" x="72" y="-186.5" font-family="Helvetica,sans-Serif" font-size="10.00">getDetailedProviderStats.cpp</text>
</g>
<!-- Node1 -->
<g id="node2" class="node"><title>Node1</title>
<polygon fill="none" stroke="#bfbfbf" points="48.5,-0.5 48.5,-19.5 89.5,-19.5 89.5,-0.5 48.5,-0.5"/>
<text text-anchor="middle" x="69" y="-7.5" font-family="Helvetica,sans-Serif" font-size="10.00">string</text>
</g>
<!-- Node0&#45;&gt;Node1 -->
<g id="edge1" class="edge"><title>Node0&#45;&gt;Node1</title>
<path fill="none" stroke="midnightblue" d="M66.3622,-179.481C60.946,-170.745 53.1363,-156.556 50,-143 40.7301,-102.933 53.4711,-54.9188 62.1413,-29.2749"/>
<polygon fill="midnightblue" stroke="midnightblue" points="65.4781,-30.3373 65.5318,-19.7426 58.8829,-27.9914 65.4781,-30.3373"/>
</g>
<!-- Node2 -->
<g id="node3" class="node"><title>Node2</title>
<g id="a_node3"><a xlink:href="nicehash-api_8hpp.html" target="_top" xlink:title="../../include/nicehash\l&#45;api.hpp">
<polygon fill="none" stroke="black" points="59.5,-112.5 59.5,-142.5 166.5,-142.5 166.5,-112.5 59.5,-112.5"/>
<text text-anchor="start" x="67.5" y="-130.5" font-family="Helvetica,sans-Serif" font-size="10.00">../../include/nicehash</text>
<text text-anchor="middle" x="113" y="-119.5" font-family="Helvetica,sans-Serif" font-size="10.00">&#45;api.hpp</text>
</a>
</g>
</g>
<!-- Node0&#45;&gt;Node2 -->
<g id="edge2" class="edge"><title>Node0&#45;&gt;Node2</title>
<path fill="none" stroke="midnightblue" d="M77.8743,-179.475C83.012,-172.019 90.7071,-160.852 97.5864,-150.869"/>
<polygon fill="midnightblue" stroke="midnightblue" points="100.545,-152.743 103.337,-142.523 94.7809,-148.771 100.545,-152.743"/>
</g>
<!-- Node2&#45;&gt;Node1 -->
<g id="edge3" class="edge"><title>Node2&#45;&gt;Node1</title>
<path fill="none" stroke="midnightblue" d="M105.09,-112.219C99.7888,-102.269 92.9075,-88.5768 88,-76 81.99,-60.5978 76.8496,-42.5033 73.4369,-29.322"/>
<polygon fill="midnightblue" stroke="midnightblue" points="76.8198,-28.4224 70.9954,-19.5722 70.0294,-30.1229 76.8198,-28.4224"/>
</g>
<!-- Node3 -->
<g id="node4" class="node"><title>Node3</title>
<g id="a_node4"><a xlink:href="client_8hpp.html" target="_top" xlink:title="client.hpp">
<polygon fill="none" stroke="black" points="97.5,-56.5 97.5,-75.5 156.5,-75.5 156.5,-56.5 97.5,-56.5"/>
<text text-anchor="middle" x="127" y="-63.5" font-family="Helvetica,sans-Serif" font-size="10.00">client.hpp</text>
</a>
</g>
</g>
<!-- Node2&#45;&gt;Node3 -->
<g id="edge4" class="edge"><title>Node2&#45;&gt;Node3</title>
<path fill="none" stroke="midnightblue" d="M116.318,-112.399C118.205,-104.377 120.592,-94.2328 122.631,-85.569"/>
<polygon fill="midnightblue" stroke="midnightblue" points="126.079,-86.1936 124.963,-75.6578 119.265,-84.5903 126.079,-86.1936"/>
</g>
<!-- Node3&#45;&gt;Node1 -->
<g id="edge5" class="edge"><title>Node3&#45;&gt;Node1</title>
<path fill="none" stroke="midnightblue" d="M117.681,-56.324C109.107,-48.3414 96.1878,-36.3128 85.8124,-26.6529"/>
<polygon fill="midnightblue" stroke="midnightblue" points="88.1922,-24.0865 78.4883,-19.8339 83.4223,-29.2098 88.1922,-24.0865"/>
</g>
</g>
</svg>
