<?xml version="1.0" encoding="UTF-8" standalone="no"?>
<!DOCTYPE svg PUBLIC "-//W3C//DTD SVG 1.1//EN"
 "http://www.w3.org/Graphics/SVG/1.1/DTD/svg11.dtd">
<!-- Generated by graphviz version 2.38.0 (20140413.2041)
 -->
<!-- Title: getOrdersByAlgorithm.cpp Pages: 1 -->
<svg width="168pt" height="207pt"
 viewBox="0.00 0.00 168.00 207.00" xmlns="http://www.w3.org/2000/svg" xmlns:xlink="http://www.w3.org/1999/xlink">
<g id="graph0" class="graph" transform="scale(1 1) rotate(0) translate(4 203)">
<title>getOrdersByAlgorithm.cpp</title>
<!-- Node0 -->
<g id="node1" class="node"><title>Node0</title>
<polygon fill="#bfbfbf" stroke="black" points="0,-179.5 0,-198.5 131,-198.5 131,-179.5 0,-179.5"/>
<text text-anchor="middle" x="65.5" y="-186.5" font-family="Helvetica,sans-Serif" font-size="10.00">getOrdersByAlgorithm.cpp</text>
</g>
<!-- Node1 -->
<g id="node2" class="node"><title>Node1</title>
<polygon fill="none" stroke="#bfbfbf" points="42,-0.5 42,-19.5 83,-19.5 83,-0.5 42,-0.5"/>
<text text-anchor="middle" x="62.5" y="-7.5" font-family="Helvetica,sans-Serif" font-size="10.00">string</text>
</g>
<!-- Node0&#45;&gt;Node1 -->
<g id="edge1" class="edge"><title>Node0&#45;&gt;Node1</title>
<path fill="none" stroke="midnightblue" d="M59.8622,-179.481C54.446,-170.745 46.6363,-156.556 43.5,-143 34.2301,-102.933 46.9711,-54.9188 55.6413,-29.2749"/>
<polygon fill="midnightblue" stroke="midnightblue" points="58.9781,-30.3373 59.0318,-19.7426 52.3829,-27.9914 58.9781,-30.3373"/>
</g>
<!-- Node2 -->
<g id="node3" class="node"><title>Node2</title>
<g id="a_node3"><a xlink:href="nicehash-api_8hpp.html" target="_top" xlink:title="../../include/nicehash\l&#45;api.hpp">
<polygon fill="none" stroke="black" points="53,-112.5 53,-142.5 160,-142.5 160,-112.5 53,-112.5"/>
<text text-anchor="start" x="61" y="-130.5" font-family="Helvetica,sans-Serif" font-size="10.00">../../include/nicehash</text>
<text text-anchor="middle" x="106.5" y="-119.5" font-family="Helvetica,sans-Serif" font-size="10.00">&#45;api.hpp</text>
</a>
</g>
</g>
<!-- Node0&#45;&gt;Node2 -->
<g id="edge2" class="edge"><title>Node0&#45;&gt;Node2</title>
<path fill="none" stroke="midnightblue" d="M71.3743,-179.475C76.512,-172.019 84.2071,-160.852 91.0864,-150.869"/>
<polygon fill="midnightblue" stroke="midnightblue" points="94.045,-152.743 96.8371,-142.523 88.2809,-148.771 94.045,-152.743"/>
</g>
<!-- Node2&#45;&gt;Node1 -->
<g id="edge3" class="edge"><title>Node2&#45;&gt;Node1</title>
<path fill="none" stroke="midnightblue" d="M98.5899,-112.219C93.2888,-102.269 86.4075,-88.5768 81.5,-76 75.49,-60.5978 70.3496,-42.5033 66.9369,-29.322"/>
<polygon fill="midnightblue" stroke="midnightblue" points="70.3198,-28.4224 64.4954,-19.5722 63.5294,-30.1229 70.3198,-28.4224"/>
</g>
<!-- Node3 -->
<g id="node4" class="node"><title>Node3</title>
<g id="a_node4"><a xlink:href="client_8hpp.html" target="_top" xlink:title="client.hpp">
<polygon fill="none" stroke="black" points="91,-56.5 91,-75.5 150,-75.5 150,-56.5 91,-56.5"/>
<text text-anchor="middle" x="120.5" y="-63.5" font-family="Helvetica,sans-Serif" font-size="10.00">client.hpp</text>
</a>
</g>
</g>
<!-- Node2&#45;&gt;Node3 -->
<g id="edge4" class="edge"><title>Node2&#45;&gt;Node3</title>
<path fill="none" stroke="midnightblue" d="M109.818,-112.399C111.705,-104.377 114.092,-94.2328 116.131,-85.569"/>
<polygon fill="midnightblue" stroke="midnightblue" points="119.579,-86.1936 118.463,-75.6578 112.765,-84.5903 119.579,-86.1936"/>
</g>
<!-- Node3&#45;&gt;Node1 -->
<g id="edge5" class="edge"><title>Node3&#45;&gt;Node1</title>
<path fill="none" stroke="midnightblue" d="M111.181,-56.324C102.607,-48.3414 89.6878,-36.3128 79.3124,-26.6529"/>
<polygon fill="midnightblue" stroke="midnightblue" points="81.6922,-24.0865 71.9883,-19.8339 76.9223,-29.2098 81.6922,-24.0865"/>
</g>
</g>
</svg>
