<?xml version="1.0" encoding="UTF-8" standalone="no"?>
<!DOCTYPE svg PUBLIC "-//W3C//DTD SVG 1.1//EN"
 "http://www.w3.org/Graphics/SVG/1.1/DTD/svg11.dtd">
<!-- Generated by graphviz version 2.38.0 (20140413.2041)
 -->
<!-- Title: getProviderStats.cpp Pages: 1 -->
<svg width="157pt" height="207pt"
 viewBox="0.00 0.00 156.50 207.00" xmlns="http://www.w3.org/2000/svg" xmlns:xlink="http://www.w3.org/1999/xlink">
<g id="graph0" class="graph" transform="scale(1 1) rotate(0) translate(4 203)">
<title>getProviderStats.cpp</title>
<!-- Node0 -->
<g id="node1" class="node"><title>Node0</title>
<polygon fill="#bfbfbf" stroke="black" points="0,-179.5 0,-198.5 108,-198.5 108,-179.5 0,-179.5"/>
<text text-anchor="middle" x="54" y="-186.5" font-family="Helvetica,sans-Serif" font-size="10.00">getProviderStats.cpp</text>
</g>
<!-- Node1 -->
<g id="node2" class="node"><title>Node1</title>
<polygon fill="none" stroke="#bfbfbf" points="30.5,-0.5 30.5,-19.5 71.5,-19.5 71.5,-0.5 30.5,-0.5"/>
<text text-anchor="middle" x="51" y="-7.5" font-family="Helvetica,sans-Serif" font-size="10.00">string</text>
</g>
<!-- Node0&#45;&gt;Node1 -->
<g id="edge1" class="edge"><title>Node0&#45;&gt;Node1</title>
<path fill="none" stroke="midnightblue" d="M48.3622,-179.481C42.946,-170.745 35.1363,-156.556 32,-143 22.7301,-102.933 35.4711,-54.9188 44.1413,-29.2749"/>
<polygon fill="midnightblue" stroke="midnightblue" points="47.4781,-30.3373 47.5318,-19.7426 40.8829,-27.9914 47.4781,-30.3373"/>
</g>
<!-- Node2 -->
<g id="node3" class="node"><title>Node2</title>
<g id="a_node3"><a xlink:href="nicehash-api_8hpp.html" target="_top" xlink:title="../../include/nicehash\l&#45;api.hpp">
<polygon fill="none" stroke="black" points="41.5,-112.5 41.5,-142.5 148.5,-142.5 148.5,-112.5 41.5,-112.5"/>
<text text-anchor="start" x="49.5" y="-130.5" font-family="Helvetica,sans-Serif" font-size="10.00">../../include/nicehash</text>
<text text-anchor="middle" x="95" y="-119.5" font-family="Helvetica,sans-Serif" font-size="10.00">&#45;api.hpp</text>
</a>
</g>
</g>
<!-- Node0&#45;&gt;Node2 -->
<g id="edge2" class="edge"><title>Node0&#45;&gt;Node2</title>
<path fill="none" stroke="midnightblue" d="M59.8743,-179.475C65.012,-172.019 72.7071,-160.852 79.5864,-150.869"/>
<polygon fill="midnightblue" stroke="midnightblue" points="82.545,-152.743 85.3371,-142.523 76.7809,-148.771 82.545,-152.743"/>
</g>
<!-- Node2&#45;&gt;Node1 -->
<g id="edge3" class="edge"><title>Node2&#45;&gt;Node1</title>
<path fill="none" stroke="midnightblue" d="M87.0899,-112.219C81.7888,-102.269 74.9075,-88.5768 70,-76 63.99,-60.5978 58.8496,-42.5033 55.4369,-29.322"/>
<polygon fill="midnightblue" stroke="midnightblue" points="58.8198,-28.4224 52.9954,-19.5722 52.0294,-30.1229 58.8198,-28.4224"/>
</g>
<!-- Node3 -->
<g id="node4" class="node"><title>Node3</title>
<g id="a_node4"><a xlink:href="client_8hpp.html" target="_top" xlink:title="client.hpp">
<polygon fill="none" stroke="black" points="79.5,-56.5 79.5,-75.5 138.5,-75.5 138.5,-56.5 79.5,-56.5"/>
<text text-anchor="middle" x="109" y="-63.5" font-family="Helvetica,sans-Serif" font-size="10.00">client.hpp</text>
</a>
</g>
</g>
<!-- Node2&#45;&gt;Node3 -->
<g id="edge4" class="edge"><title>Node2&#45;&gt;Node3</title>
<path fill="none" stroke="midnightblue" d="M98.3178,-112.399C100.205,-104.377 102.592,-94.2328 104.631,-85.569"/>
<polygon fill="midnightblue" stroke="midnightblue" points="108.079,-86.1936 106.963,-75.6578 101.265,-84.5903 108.079,-86.1936"/>
</g>
<!-- Node3&#45;&gt;Node1 -->
<g id="edge5" class="edge"><title>Node3&#45;&gt;Node1</title>
<path fill="none" stroke="midnightblue" d="M99.6813,-56.324C91.1074,-48.3414 78.1878,-36.3128 67.8124,-26.6529"/>
<polygon fill="midnightblue" stroke="midnightblue" points="70.1922,-24.0865 60.4883,-19.8339 65.4223,-29.2098 70.1922,-24.0865"/>
</g>
</g>
</svg>
