<?xml version="1.0" encoding="UTF-8" standalone="no"?>
<!DOCTYPE svg PUBLIC "-//W3C//DTD SVG 1.1//EN"
 "http://www.w3.org/Graphics/SVG/1.1/DTD/svg11.dtd">
<!-- Generated by graphviz version 2.38.0 (20140413.2041)
 -->
<!-- Title: getProviderWorkerStats.cpp Pages: 1 -->
<svg width="173pt" height="207pt"
 viewBox="0.00 0.00 172.50 207.00" xmlns="http://www.w3.org/2000/svg" xmlns:xlink="http://www.w3.org/1999/xlink">
<g id="graph0" class="graph" transform="scale(1 1) rotate(0) translate(4 203)">
<title>getProviderWorkerStats.cpp</title>
<!-- Node0 -->
<g id="node1" class="node"><title>Node0</title>
<polygon fill="#bfbfbf" stroke="black" points="0,-179.5 0,-198.5 140,-198.5 140,-179.5 0,-179.5"/>
<text text-anchor="middle" x="70" y="-186.5" font-family="Helvetica,sans-Serif" font-size="10.00">getProviderWorkerStats.cpp</text>
</g>
<!-- Node1 -->
<g id="node2" class="node"><title>Node1</title>
<polygon fill="none" stroke="#bfbfbf" points="46.5,-0.5 46.5,-19.5 87.5,-19.5 87.5,-0.5 46.5,-0.5"/>
<text text-anchor="middle" x="67" y="-7.5" font-family="Helvetica,sans-Serif" font-size="10.00">string</text>
</g>
<!-- Node0&#45;&gt;Node1 -->
<g id="edge1" class="edge"><title>Node0&#45;&gt;Node1</title>
<path fill="none" stroke="midnightblue" d="M64.3622,-179.481C58.946,-170.745 51.1363,-156.556 48,-143 38.7301,-102.933 51.4711,-54.9188 60.1413,-29.2749"/>
<polygon fill="midnightblue" stroke="midnightblue" points="63.4781,-30.3373 63.5318,-19.7426 56.8829,-27.9914 63.4781,-30.3373"/>
</g>
<!-- Node2 -->
<g id="node3" class="node"><title>Node2</title>
<g id="a_node3"><a xlink:href="nicehash-api_8hpp.html" target="_top" xlink:title="../../include/nicehash\l&#45;api.hpp">
<polygon fill="none" stroke="black" points="57.5,-112.5 57.5,-142.5 164.5,-142.5 164.5,-112.5 57.5,-112.5"/>
<text text-anchor="start" x="65.5" y="-130.5" font-family="Helvetica,sans-Serif" font-size="10.00">../../include/nicehash</text>
<text text-anchor="middle" x="111" y="-119.5" font-family="Helvetica,sans-Serif" font-size="10.00">&#45;api.hpp</text>
</a>
</g>
</g>
<!-- Node0&#45;&gt;Node2 -->
<g id="edge2" class="edge"><title>Node0&#45;&gt;Node2</title>
<path fill="none" stroke="midnightblue" d="M75.8743,-179.475C81.012,-172.019 88.7071,-160.852 95.5864,-150.869"/>
<polygon fill="midnightblue" stroke="midnightblue" points="98.545,-152.743 101.337,-142.523 92.7809,-148.771 98.545,-152.743"/>
</g>
<!-- Node2&#45;&gt;Node1 -->
<g id="edge3" class="edge"><title>Node2&#45;&gt;Node1</title>
<path fill="none" stroke="midnightblue" d="M103.09,-112.219C97.7888,-102.269 90.9075,-88.5768 86,-76 79.99,-60.5978 74.8496,-42.5033 71.4369,-29.322"/>
<polygon fill="midnightblue" stroke="midnightblue" points="74.8198,-28.4224 68.9954,-19.5722 68.0294,-30.1229 74.8198,-28.4224"/>
</g>
<!-- Node3 -->
<g id="node4" class="node"><title>Node3</title>
<g id="a_node4"><a xlink:href="client_8hpp.html" target="_top" xlink:title="client.hpp">
<polygon fill="none" stroke="black" points="95.5,-56.5 95.5,-75.5 154.5,-75.5 154.5,-56.5 95.5,-56.5"/>
<text text-anchor="middle" x="125" y="-63.5" font-family="Helvetica,sans-Serif" font-size="10.00">client.hpp</text>
</a>
</g>
</g>
<!-- Node2&#45;&gt;Node3 -->
<g id="edge4" class="edge"><title>Node2&#45;&gt;Node3</title>
<path fill="none" stroke="midnightblue" d="M114.318,-112.399C116.205,-104.377 118.592,-94.2328 120.631,-85.569"/>
<polygon fill="midnightblue" stroke="midnightblue" points="124.079,-86.1936 122.963,-75.6578 117.265,-84.5903 124.079,-86.1936"/>
</g>
<!-- Node3&#45;&gt;Node1 -->
<g id="edge5" class="edge"><title>Node3&#45;&gt;Node1</title>
<path fill="none" stroke="midnightblue" d="M115.681,-56.324C107.107,-48.3414 94.1878,-36.3128 83.8124,-26.6529"/>
<polygon fill="midnightblue" stroke="midnightblue" points="86.1922,-24.0865 76.4883,-19.8339 81.4223,-29.2098 86.1922,-24.0865"/>
</g>
</g>
</svg>
