<?xml version="1.0" encoding="UTF-8" standalone="no"?>
<!DOCTYPE svg PUBLIC "-//W3C//DTD SVG 1.1//EN"
 "http://www.w3.org/Graphics/SVG/1.1/DTD/svg11.dtd">
<!-- Generated by graphviz version 2.38.0 (20140413.2041)
 -->
<!-- Title: nicehash&#45;api.hpp Pages: 1 -->
<svg width="112pt" height="140pt"
 viewBox="0.00 0.00 111.50 140.00" xmlns="http://www.w3.org/2000/svg" xmlns:xlink="http://www.w3.org/1999/xlink">
<g id="graph0" class="graph" transform="scale(1 1) rotate(0) translate(4 136)">
<title>nicehash&#45;api.hpp</title>
<!-- Node0 -->
<g id="node1" class="node"><title>Node0</title>
<polygon fill="#bfbfbf" stroke="black" points="0,-112.5 0,-131.5 90,-131.5 90,-112.5 0,-112.5"/>
<text text-anchor="middle" x="45" y="-119.5" font-family="Helvetica,sans-Serif" font-size="10.00">nicehash&#45;api.hpp</text>
</g>
<!-- Node1 -->
<g id="node2" class="node"><title>Node1</title>
<polygon fill="none" stroke="#bfbfbf" points="24.5,-0.5 24.5,-19.5 65.5,-19.5 65.5,-0.5 24.5,-0.5"/>
<text text-anchor="middle" x="45" y="-7.5" font-family="Helvetica,sans-Serif" font-size="10.00">string</text>
</g>
<!-- Node0&#45;&gt;Node1 -->
<g id="edge1" class="edge"><title>Node0&#45;&gt;Node1</title>
<path fill="none" stroke="midnightblue" d="M42.1631,-112.201C38.4832,-99.7353 32.7824,-76.2018 35,-56 35.9726,-47.1398 37.9917,-37.4716 39.9626,-29.3755"/>
<polygon fill="midnightblue" stroke="midnightblue" points="43.3926,-30.0919 42.5176,-19.5332 36.6171,-28.333 43.3926,-30.0919"/>
</g>
<!-- Node2 -->
<g id="node3" class="node"><title>Node2</title>
<g id="a_node3"><a xlink:href="client_8hpp.html" target="_top" xlink:title="client.hpp">
<polygon fill="none" stroke="black" points="44.5,-56.5 44.5,-75.5 103.5,-75.5 103.5,-56.5 44.5,-56.5"/>
<text text-anchor="middle" x="74" y="-63.5" font-family="Helvetica,sans-Serif" font-size="10.00">client.hpp</text>
</a>
</g>
</g>
<!-- Node0&#45;&gt;Node2 -->
<g id="edge2" class="edge"><title>Node0&#45;&gt;Node2</title>
<path fill="none" stroke="midnightblue" d="M49.7888,-112.083C53.7584,-104.691 59.5251,-93.9533 64.4348,-84.8111"/>
<polygon fill="midnightblue" stroke="midnightblue" points="67.6525,-86.217 69.3003,-75.7511 61.4855,-82.9051 67.6525,-86.217"/>
</g>
<!-- Node2&#45;&gt;Node1 -->
<g id="edge3" class="edge"><title>Node2&#45;&gt;Node1</title>
<path fill="none" stroke="midnightblue" d="M69.2112,-56.083C65.2416,-48.6913 59.4749,-37.9533 54.5652,-28.8111"/>
<polygon fill="midnightblue" stroke="midnightblue" points="57.5145,-26.9051 49.6997,-19.7511 51.3475,-30.217 57.5145,-26.9051"/>
</g>
</g>
</svg>
