<?xml version="1.0" encoding="UTF-8" standalone="no"?>
<!DOCTYPE svg PUBLIC "-//W3C//DTD SVG 1.1//EN"
 "http://www.w3.org/Graphics/SVG/1.1/DTD/svg11.dtd">
<!-- Generated by graphviz version 2.38.0 (20140413.2041)
 -->
<!-- Title: throwExceptionIfAlgorithmInvalid.cpp Pages: 1 -->
<svg width="246pt" height="218pt"
 viewBox="0.00 0.00 246.00 218.00" xmlns="http://www.w3.org/2000/svg" xmlns:xlink="http://www.w3.org/1999/xlink">
<g id="graph0" class="graph" transform="scale(1 1) rotate(0) translate(4 214)">
<title>throwExceptionIfAlgorithmInvalid.cpp</title>
<!-- Node0 -->
<g id="node1" class="node"><title>Node0</title>
<polygon fill="#bfbfbf" stroke="black" points="27,-179.5 27,-209.5 158,-209.5 158,-179.5 27,-179.5"/>
<text text-anchor="start" x="35" y="-197.5" font-family="Helvetica,sans-Serif" font-size="10.00">throwExceptionIfAlgorithm</text>
<text text-anchor="middle" x="92.5" y="-186.5" font-family="Helvetica,sans-Serif" font-size="10.00">Invalid.cpp</text>
</g>
<!-- Node1 -->
<g id="node2" class="node"><title>Node1</title>
<polygon fill="none" stroke="#bfbfbf" points="0,-118 0,-137 59,-137 59,-118 0,-118"/>
<text text-anchor="middle" x="29.5" y="-125" font-family="Helvetica,sans-Serif" font-size="10.00">stdexcept</text>
</g>
<!-- Node0&#45;&gt;Node1 -->
<g id="edge1" class="edge"><title>Node0&#45;&gt;Node1</title>
<path fill="none" stroke="midnightblue" d="M78.8299,-179.396C68.9096,-169.161 55.4714,-155.296 45.1259,-144.622"/>
<polygon fill="midnightblue" stroke="midnightblue" points="47.4,-141.939 37.927,-137.195 42.3735,-146.811 47.4,-141.939"/>
</g>
<!-- Node2 -->
<g id="node3" class="node"><title>Node2</title>
<polygon fill="none" stroke="#bfbfbf" points="77.5,-118 77.5,-137 107.5,-137 107.5,-118 77.5,-118"/>
<text text-anchor="middle" x="92.5" y="-125" font-family="Helvetica,sans-Serif" font-size="10.00">set</text>
</g>
<!-- Node0&#45;&gt;Node2 -->
<g id="edge2" class="edge"><title>Node0&#45;&gt;Node2</title>
<path fill="none" stroke="midnightblue" d="M92.5,-179.396C92.5,-170.064 92.5,-157.714 92.5,-147.517"/>
<polygon fill="midnightblue" stroke="midnightblue" points="96.0001,-147.195 92.5,-137.195 89.0001,-147.195 96.0001,-147.195"/>
</g>
<!-- Node3 -->
<g id="node4" class="node"><title>Node3</title>
<g id="a_node4"><a xlink:href="nicehash-api_8hpp.html" target="_top" xlink:title="../../include/nicehash\l&#45;api.hpp">
<polygon fill="none" stroke="black" points="126,-112.5 126,-142.5 233,-142.5 233,-112.5 126,-112.5"/>
<text text-anchor="start" x="134" y="-130.5" font-family="Helvetica,sans-Serif" font-size="10.00">../../include/nicehash</text>
<text text-anchor="middle" x="179.5" y="-119.5" font-family="Helvetica,sans-Serif" font-size="10.00">&#45;api.hpp</text>
</a>
</g>
</g>
<!-- Node0&#45;&gt;Node3 -->
<g id="edge3" class="edge"><title>Node0&#45;&gt;Node3</title>
<path fill="none" stroke="midnightblue" d="M111.378,-179.396C123.348,-170.452 139.028,-158.737 152.327,-148.802"/>
<polygon fill="midnightblue" stroke="midnightblue" points="154.743,-151.366 160.659,-142.577 150.553,-145.758 154.743,-151.366"/>
</g>
<!-- Node4 -->
<g id="node5" class="node"><title>Node4</title>
<polygon fill="none" stroke="#bfbfbf" points="159,-0.5 159,-19.5 200,-19.5 200,-0.5 159,-0.5"/>
<text text-anchor="middle" x="179.5" y="-7.5" font-family="Helvetica,sans-Serif" font-size="10.00">string</text>
</g>
<!-- Node3&#45;&gt;Node4 -->
<g id="edge4" class="edge"><title>Node3&#45;&gt;Node4</title>
<path fill="none" stroke="midnightblue" d="M175.832,-112.482C172.557,-98.2737 168.555,-75.6462 170.5,-56 171.374,-47.1697 173.191,-37.5054 174.965,-29.4041"/>
<polygon fill="midnightblue" stroke="midnightblue" points="178.401,-30.0846 177.265,-19.5508 171.584,-28.4935 178.401,-30.0846"/>
</g>
<!-- Node5 -->
<g id="node6" class="node"><title>Node5</title>
<g id="a_node6"><a xlink:href="client_8hpp.html" target="_top" xlink:title="client.hpp">
<polygon fill="none" stroke="black" points="179,-56.5 179,-75.5 238,-75.5 238,-56.5 179,-56.5"/>
<text text-anchor="middle" x="208.5" y="-63.5" font-family="Helvetica,sans-Serif" font-size="10.00">client.hpp</text>
</a>
</g>
</g>
<!-- Node3&#45;&gt;Node5 -->
<g id="edge5" class="edge"><title>Node3&#45;&gt;Node5</title>
<path fill="none" stroke="midnightblue" d="M186.373,-112.399C190.413,-104.11 195.558,-93.5542 199.869,-84.7077"/>
<polygon fill="midnightblue" stroke="midnightblue" points="203.045,-86.1804 204.28,-75.6578 196.753,-83.1135 203.045,-86.1804"/>
</g>
<!-- Node5&#45;&gt;Node4 -->
<g id="edge6" class="edge"><title>Node5&#45;&gt;Node4</title>
<path fill="none" stroke="midnightblue" d="M203.711,-56.083C199.742,-48.6913 193.975,-37.9533 189.065,-28.8111"/>
<polygon fill="midnightblue" stroke="midnightblue" points="192.014,-26.9051 184.2,-19.7511 185.847,-30.217 192.014,-26.9051"/>
</g>
</g>
</svg>
